<svg id="euegebxn05vl1" xmlns="http://www.w3.org/2000/svg" xmlns:xlink="http://www.w3.org/1999/xlink" viewBox="0 0 734.200000 294.870000" shape-rendering="geometricPrecision" text-rendering="geometricPrecision"><style><![CDATA[#euegebxn05vl3_to {animation: euegebxn05vl3_to__to 4000ms linear infinite normal forwards}@keyframes euegebxn05vl3_to__to { 0% {transform: translate(717px,-0.018540px)} 10% {transform: translate(717px,-0.018540px);animation-timing-function: cubic-bezier(0.680000,-0.550000,0.265000,1.550000)} 30% {transform: translate(-1px,-0.018540px);animation-timing-function: cubic-bezier(0.680000,-0.550000,0.265000,1.550000)} 55% {transform: translate(-1px,-0.018540px);animation-timing-function: cubic-bezier(0.680000,-0.550000,0.265000,1.550000)} 75% {transform: translate(-688.500000px,-0.018540px)} 100% {transform: translate(-688.500000px,-0.018540px)} }#euegebxn05vl3 {animation: euegebxn05vl3_f_o 4000ms linear infinite normal forwards}@keyframes euegebxn05vl3_f_o { 0% {fill-opacity: 1} 10% {fill-opacity: 1} 27.500000% {fill-opacity: 1} 30% {fill-opacity: 0} 52.500000% {fill-opacity: 0} 55% {fill-opacity: 1} 75% {fill-opacity: 1} 100% {fill-opacity: 1} }#euegebxn05vl4 {animation: euegebxn05vl4_f_o 4000ms linear infinite normal forwards}@keyframes euegebxn05vl4_f_o { 0% {fill-opacity: 0} 27.500000% {fill-opacity: 0} 30% {fill-opacity: 1} 52.500000% {fill-opacity: 1} 55% {fill-opacity: 0} 100% {fill-opacity: 0} }#euegebxn05vl6_to {animation: euegebxn05vl6_to__to 4000ms linear infinite normal forwards}@keyframes euegebxn05vl6_to__to { 0% {transform: translate(0px,49.900000px);animation-timing-function: cubic-bezier(0.645000,0.045000,0.355000,1)} 12.500000% {transform: translate(0px,-0.100000px);animation-timing-function: cubic-bezier(0.645000,0.045000,0.355000,1)} 72.500000% {transform: translate(0px,-0.100000px);animation-timing-function: cubic-bezier(0.645000,0.045000,0.355000,1)} 85% {transform: translate(0px,-50.100000px)} 100% {transform: translate(0px,-50.100000px)} }#euegebxn05vl6 {animation: euegebxn05vl6_f_o 4000ms linear infinite normal forwards}@keyframes euegebxn05vl6_f_o { 0% {fill-opacity: 0;animation-timing-function: cubic-bezier(0.645000,0.045000,0.355000,1)} 12.500000% {fill-opacity: 1;animation-timing-function: cubic-bezier(0.645000,0.045000,0.355000,1)} 72.500000% {fill-opacity: 1} 85% {fill-opacity: 0} 100% {fill-opacity: 0} }#euegebxn05vl7_to {animation: euegebxn05vl7_to__to 4000ms linear infinite normal forwards}@keyframes euegebxn05vl7_to__to { 0% {transform: translate(0px,50px)} 2.500000% {transform: translate(0px,50px);animation-timing-function: cubic-bezier(0.645000,0.045000,0.355000,1)} 15% {transform: translate(0px,0px);animation-timing-function: cubic-bezier(0.645000,0.045000,0.355000,1)} 67.500000% {transform: translate(-0px,-0px);animation-timing-function: cubic-bezier(0.645000,0.045000,0.355000,1)} 80% {transform: translate(0px,-50px)} 100% {transform: translate(0px,-50px)} }#euegebxn05vl7 {animation: euegebxn05vl7_f_o 4000ms linear infinite normal forwards}@keyframes euegebxn05vl7_f_o { 0% {fill-opacity: 0} 2.500000% {fill-opacity: 0;animation-timing-function: cubic-bezier(0.645000,0.045000,0.355000,1)} 15% {fill-opacity: 1;animation-timing-function: cubic-bezier(0.645000,0.045000,0.355000,1)} 67.500000% {fill-opacity: 1} 80% {fill-opacity: 0} 100% {fill-opacity: 0} }#euegebxn05vl8_to {animation: euegebxn05vl8_to__to 4000ms linear infinite normal forwards}@keyframes euegebxn05vl8_to__to { 0% {transform: translate(0.100000px,53.500058px)} 5% {transform: translate(0.100000px,53.500058px);animation-timing-function: cubic-bezier(0.645000,0.045000,0.355000,1)} 17.500000% {transform: translate(0px,0px);animation-timing-function: cubic-bezier(0.645000,0.045000,0.355000,1)} 62.500000% {transform: translate(0.100000px,0.000312px);animation-timing-function: cubic-bezier(0.645000,0.045000,0.355000,1)} 75% {transform: translate(0px,-50px)} 100% {transform: translate(0px,-50px)} }#euegebxn05vl8 {animation: euegebxn05vl8_f_o 4000ms linear infinite normal forwards}@keyframes euegebxn05vl8_f_o { 0% {fill-opacity: 0} 5% {fill-opacity: 0;animation-timing-function: cubic-bezier(0.645000,0.045000,0.355000,1)} 17.500000% {fill-opacity: 1;animation-timing-function: cubic-bezier(0.645000,0.045000,0.355000,1)} 62.500000% {fill-opacity: 1} 75% {fill-opacity: 0} 100% {fill-opacity: 0} }]]></style><defs><filter id="euegebxn05vl3-filter" x="-400%" width="600%" y="-400%" height="600%"><feGaussianBlur id="euegebxn05vl3-filter-blur-0" stdDeviation="20,0" result="result"/></filter><filter id="euegebxn05vl4-filter" x="-400%" width="600%" y="-400%" height="600%"><feGaussianBlur id="euegebxn05vl4-filter-blur-0" stdDeviation="1,0" result="result"/></filter></defs><g id="euegebxn05vl2"><g id="euegebxn05vl3_to" transform="translate(717,-0.018540)"><path id="euegebxn05vl3" d="M638.500000,42.400000C611.500000,45.700000,522.200000,16.500000,476,6.100000C442.800000,-1.400000,384.100000,-3.800000,350.100000,9.700000L277.200000,46.500000L259.300000,55.500000C203.400000,72.200000,121.900000,39.900000,20.200000,100.500000C20.300000,100.500000,20.300000,100.500000,20.400000,100.400000C20.300000,100.400000,20.300000,100.500000,20.200000,100.500000C91.400000,73.600000,143.600000,72.300000,221.800000,72.300000C234.700000,72.300000,253.300000,70.100000,265.400000,65.700000L306.300000,44.100000L347.700000,22.200000C349.500000,21.200000,351.400000,20.300000,353.400000,19.500000C353.400000,19.500000,353.400000,19.500000,353.500000,19.500000C355.400000,18.700000,357.300000,17.900000,359.200000,17.200000C359.400000,17.100000,359.600000,17.100000,359.800000,17C361.600000,16.400000,363.500000,15.700000,365.400000,15.200000C365.600000,15.200000,365.700000,15.100000,365.900000,15.100000C418,0.300000,495.800000,20,559.200000,42.800000C496,24.300000,397.200000,9.300000,366.800000,29.100000L338.400000,45.700000L290.900000,73.400000C290.900000,73.400000,290.900000,73.400000,291,73.400000L290.900000,73.500000C509.400000,60.100000,565.600000,61.700000,592.100000,60C588.300000,62.300000,578.200000,64.700000,555.500000,65.800000L221.800000,90.400000C221.800000,90.400000,222,90.400000,222.300000,90.400000L221.800000,90.400000C221.800000,90.400000,581.800000,90.500000,592.600000,90.400000C623.700000,90.200000,633.600000,71.300000,638.500000,42.400000" transform="translate(0,0)" filter="url(#euegebxn05vl3-filter)" fill="rgb(35,31,32)" stroke="none" stroke-width="1"/></g><path id="euegebxn05vl4" d="M638.500000,42.400000C611.500000,45.700000,522.200000,16.500000,476,6.100000C442.800000,-1.400000,384.100000,-3.800000,350.100000,9.700000L277.200000,46.500000L259.300000,55.500000C203.400000,72.200000,121.900000,39.900000,20.200000,100.500000C20.300000,100.500000,20.300000,100.500000,20.400000,100.400000C20.300000,100.400000,20.300000,100.500000,20.200000,100.500000C91.400000,73.600000,143.600000,72.300000,221.800000,72.300000C234.700000,72.300000,253.300000,70.100000,265.400000,65.700000L306.300000,44.100000L347.700000,22.200000C349.500000,21.200000,351.400000,20.300000,353.400000,19.500000C353.400000,19.500000,353.400000,19.500000,353.500000,19.500000C355.400000,18.700000,357.300000,17.900000,359.200000,17.200000C359.400000,17.100000,359.600000,17.100000,359.800000,17C361.600000,16.400000,363.500000,15.700000,365.400000,15.200000C365.600000,15.200000,365.700000,15.100000,365.900000,15.100000C418,0.300000,495.800000,20,559.200000,42.800000C496,24.300000,397.200000,9.300000,366.800000,29.100000L338.400000,45.700000L290.900000,73.400000C290.900000,73.400000,290.900000,73.400000,291,73.400000L290.900000,73.500000C509.400000,60.100000,565.600000,61.700000,592.100000,60C588.300000,62.300000,578.200000,64.700000,555.500000,65.800000L221.800000,90.400000C221.800000,90.400000,222,90.400000,222.300000,90.400000L221.800000,90.400000C221.800000,90.400000,581.800000,90.500000,592.600000,90.400000C623.700000,90.200000,633.600000,71.300000,638.500000,42.400000" transform="matrix(1 0 0 1 -1 -0.01853959000000)" filter="url(#euegebxn05vl4-filter)" fill="rgb(35,31,32)" fill-opacity="0" stroke="none" stroke-width="1"/><g id="euegebxn05vl5"><g id="euegebxn05vl6_to" transform="translate(0,49.900000)"><path id="euegebxn05vl6" d="M150.800000,197.500000C146.800000,199.500000,142.700000,201,138.600000,202.300000C134.500000,203.500000,128.900000,204.600000,121.700000,205.700000L107.400000,207.800000C94,209.600000,84.400000,211.900000,78.600000,214.500000C68.800000,219,63.900000,226,63.900000,235.400000C63.900000,243.800000,66.900000,249.900000,72.900000,253.600000C78.900000,257.300000,86.300000,259.200000,94.900000,259.200000C108.600000,259.200000,121.200000,256.100000,132.800000,249.900000C144.300000,243.700000,150.300000,232.300000,150.800000,215.900000L150.800000,197.500000ZM112.200000,174.500000C124,173.300000,132.400000,171.900000,137.400000,170.200000C146.500000,167.200000,151,162.500000,151,156.200000C151,148.500000,147.500000,143.200000,140.600000,140.200000C133.700000,137.300000,123.500000,135.800000,110.100000,135.800000C95.100000,135.800000,84.400000,138.700000,78.100000,144.400000C73.600000,148.700000,70.700000,154.400000,69.200000,161.700000L7.800000,161.700000C9.100000,145.200000,15.100000,131.700000,25.700000,121.100000C42.500000,104.500000,71.400000,96.200000,112.400000,96.200000C139.100000,96.200000,162.700000,100.300000,183.500000,108.500000C204.200000,116.700000,214.600000,132.100000,214.600000,154.800000L214.600000,241.200000C214.600000,247.200000,214.800000,254.400000,215,263C215.400000,269.500000,216.700000,273.800000,218.800000,276.100000C220.900000,278.400000,224,280.300000,228.200000,281.800000L228.200000,289.100000L158.900000,289.100000C157,285.300000,155.600000,281.700000,154.900000,278.400000C154.200000,275.100000,153.600000,271.300000,153.100000,267C144.300000,274.400000,134.200000,280.700000,122.700000,285.800000C109,291.900000,93.500000,295,76.200000,295C54.200000,295,35.900000,290.100000,21.600000,280.400000C7.200000,270.600000,0,256.800000,0,238.900000C0,215.700000,11.500000,199,34.600000,188.600000C47.300000,183,65.900000,178.900000,90.500000,176.500000L112.200000,174.500000Z" transform="translate(0,0)" fill="rgb(205,22,63)" fill-opacity="0" stroke="none" stroke-width="1"/></g><g id="euegebxn05vl7_to" transform="translate(0,50)"><path id="euegebxn05vl7" d="M549,101.400000C559.400000,104.600000,568.900000,110.300000,577.400000,118.300000C584.300000,124.900000,588.900000,132.900000,591.300000,142.500000C592.800000,148.800000,593.500000,158.100000,593.500000,170.300000L593,289.100000L527.800000,289.100000L527.800000,169.100000C527.800000,162,526.300000,156.100000,523.300000,151.500000C517.600000,142.700000,507.200000,138.400000,492,138.400000C474.400000,138.400000,462.300000,144,455.600000,155.300000C452.200000,161.300000,450.500000,168.500000,450.500000,176.900000L450.500000,289.100000L386.400000,289.100000L386.400000,176.900000C386.400000,165.700000,384.900000,157.600000,381.900000,152.500000C376.500000,143.400000,366,138.800000,350.400000,138.800000C332.200000,138.800000,320,143.400000,313.800000,152.500000C310.400000,157.700000,308.700000,165.400000,308.700000,175.700000L308.700000,289.100000L244,289.100000L244,101L305.900000,101L305.900000,128.500000C313.800000,118.700000,321.200000,111.700000,328.200000,107.600000C340.600000,100.200000,356.600000,96.500000,376.200000,96.500000C394.800000,96.500000,409.900000,99.700000,421.300000,106C430.500000,111.900000,437.500000,119.400000,442.300000,128.600000C450.600000,117.500000,461,109.400000,473.400000,104.200000C486.500000,99,501.100000,96.400000,517.200000,96.400000C528,96.500000,538.600000,98.200000,549,101.400000" transform="translate(0,0)" fill="rgb(205,22,63)" fill-opacity="0" stroke="none" stroke-width="1"/></g><g id="euegebxn05vl8_to" transform="translate(0.100000,53.500058)"><path id="euegebxn05vl8" d="M597.400000,137L631.400000,137L631.400000,253.100000C631.400000,264.900000,635,273.600000,642.100000,279.200000C653.100000,288.100000,673.700000,292.100000,703.900000,291.300000L734.100000,290.400000L734.100000,253.600000C732,253.700000,729.900000,253.800000,727.700000,253.900000C725.500000,254,723.500000,254,721.500000,254C708.500000,254,700.800000,253,698.200000,251.100000C695.700000,249.200000,694.400000,244.400000,694.400000,236.700000L694.400000,137L734,137L734,101.900000L694.400000,101.900000L694.400000,43.500000C662.400000,43.400000,662.300000,42.900000,652.300000,43.500000C649,48.800000,649.700000,102.400000,597.200000,101.800000L597.200000,137Z" transform="translate(0,0)" fill="rgb(205,22,63)" fill-opacity="0" stroke="none" stroke-width="1"/></g></g></g></svg>