<svg xmlns="http://www.w3.org/2000/svg" width="17.864" height="16.178" viewBox="0 0 17.864 16.178">
  <g id="assign-icon-new-green" transform="translate(-20.1 -11.143)">
    <path id="Path_1" data-name="Path 1" d="M31.754,27.174H20.617c-.292,0-.517-.3-.517-.689v-14.8c.022-.389.247-.689.517-.689H31.754c.292,0,.517.3.517.689v14.83a.6.6,0,0,1-.517.659ZM21.135,25.8h10.1V12.378h-10.1Z" transform="translate(0 0.147)" fill="#00be77"/>
    <path id="Path_2" data-name="Path 2" d="M146.842,67.294h0a.022.022,0,0,1,.023-.023h0a.022.022,0,0,1,.023-.023h0a.022.022,0,0,1,.023-.023h0a.022.022,0,0,1,.023-.023h0a.022.022,0,0,1,.023-.023h0v-.023h0v-.023h0V67.11h0v-.023h0v-.023h0v-.023h0v-.023h0V67h0v-.045h0V66.93h0v-.023h0v-.023h0v-.023h0v-.023h0v-.023h0v-.023h0V66.77h0a.022.022,0,0,0-.023-.023h0a.022.022,0,0,0-.023-.023h0a.022.022,0,0,0-.023-.023h0a.022.022,0,0,0-.023-.023h0a.022.022,0,0,0-.023-.023h0l-.023-.023H146.8L144.909,65a.516.516,0,0,0-.682.773l.819.728h-4.322a.523.523,0,0,0,0,1.046h4.368l-.819.728a.509.509,0,0,0-.046.728.561.561,0,0,0,.387.182.5.5,0,0,0,.341-.136l1.888-1.638h.023a.4.4,0,0,1-.023-.114Z" transform="translate(-108.993 -47.759)" fill="#00be77"/>
    <line id="Line_3" data-name="Line 3" x2="4.15" transform="translate(21.931 15.957)" fill="none" stroke="#00be77" stroke-width="1"/>
    <line id="Line_4" data-name="Line 4" x2="4.153" transform="translate(26.422 15.957)" fill="none" stroke="#00be77" stroke-width="1"/>
    <line id="Line_5" data-name="Line 5" x2="4.15" transform="translate(21.931 17.957)" fill="none" stroke="#00be77" stroke-width="1"/>
    <line id="Line_6" data-name="Line 6" x2="4.153" transform="translate(26.422 17.957)" fill="none" stroke="#00be77" stroke-width="1"/>
    <line id="Line_7" data-name="Line 7" x2="4.15" transform="translate(21.931 19.957)" fill="none" stroke="#00be77" stroke-width="1"/>
    <line id="Line_8" data-name="Line 8" x2="4.153" transform="translate(26.422 19.957)" fill="none" stroke="#00be77" stroke-width="1"/>
    <line id="Line_9" data-name="Line 9" x2="4.15" transform="translate(21.931 21.957)" fill="none" stroke="#00be77" stroke-width="1"/>
    <line id="Line_10" data-name="Line 10" x2="4.153" transform="translate(26.422 21.957)" fill="none" stroke="#00be77" stroke-width="1"/>
  </g>
</svg>
