<?xml version="1.0" encoding="utf-8"?>
<!-- Generator: Adobe Illustrator 24.3.0, SVG Export Plug-In . SVG Version: 6.00 Build 0)  -->
<svg version="1.1" id="Layer_1" xmlns="http://www.w3.org/2000/svg" xmlns:xlink="http://www.w3.org/1999/xlink" x="0px" y="0px"
	 viewBox="0 0 512 467" style="enable-background:new 0 0 512 467;" xml:space="preserve">
<style type="text/css">
	.st0{fill:#BA0C2F;}
</style>
<g>
	<path class="st0" d="M57.5,86.8h257.2c4.8,0,8.8-5,8.8-11.1c0-6.1-3.9-11.1-8.8-11.1H57.5c-4.8,0-8.8,5-8.8,11.1
		C48.8,81.9,52.7,86.8,57.5,86.8z"/>
	<path class="st0" d="M460.8,404c21.4,0,38.8-22,38.8-49.1V157.3c0-27.1-17.4-49.1-38.8-49.1h-103V59c0-27.1-17.4-49.1-38.8-49.1
		H53.2c-21.4,0-38.8,22-38.8,49.1v197.6c0,27.1,17.4,49.1,38.8,49.1h103v49.1c0,27.1,17.4,49.1,38.8,49.1h34.4v44.9
		c0,6.1,3.9,11.1,8.8,11.1c1.6,0,3.2-0.6,4.6-1.6l69.9-54.4H460.8z M53.2,283.6c-11.8,0-21.3-12.1-21.3-26.9V59
		c0-14.9,9.5-26.9,21.3-26.9H319c11.8,0,21.3,12.1,21.3,26.9v49.1H195c-9,0-17.7,4-24.7,11.2H57.5c-4.8,0-8.8,5-8.8,11.1
		c0,6.1,3.9,11.1,8.8,11.1h100.7c-1.4,5.1-2.1,10.4-2.1,15.7v16.8H57.5c-4.8,0-8.8,5-8.8,11.1c0,6.1,3.9,11.1,8.8,11.1h98.6v32.5
		H57.5c-4.8,0-8.8,5-8.8,11.1c0,6.1,3.9,11.1,8.8,11.1h98.6v32.6L53.2,283.6z M305.7,383.5L247,429.1v-36.1c0-6.1-3.9-11.1-8.8-11.1
		H195c-11.8,0-21.3-12.1-21.3-26.9V157.3c0-14.9,9.5-26.9,21.3-26.9h265.8c11.8,0,21.3,12.1,21.3,26.9v197.6
		c0,14.9-9.5,26.9-21.3,26.9H310.3C308.7,381.8,307.1,382.4,305.7,383.5z"/>
	<path class="st0" d="M199.3,185.1h257.2c4.8,0,8.8-5,8.8-11.1s-3.9-11.1-8.8-11.1H199.3c-4.8,0-8.8,5-8.8,11.1
		S194.5,185.1,199.3,185.1z"/>
	<path class="st0" d="M199.3,239.8h257.2c4.8,0,8.8-5,8.8-11.1c0-6.1-3.9-11.1-8.8-11.1H199.3c-4.8,0-8.8,5-8.8,11.1
		C190.6,234.8,194.5,239.8,199.3,239.8z"/>
	<path class="st0" d="M199.3,294.5h257.2c4.8,0,8.8-5,8.8-11.1s-3.9-11.1-8.8-11.1H199.3c-4.8,0-8.8,5-8.8,11.1
		S194.5,294.5,199.3,294.5z"/>
	<path class="st0" d="M465.3,338.2c0-6.1-3.9-11.1-8.8-11.1H199.3c-4.8,0-8.8,5-8.8,11.1c0,6.1,3.9,11.1,8.8,11.1h257.2
		C461.4,349.3,465.3,344.3,465.3,338.2z"/>
</g>
</svg>
