<?xml version="1.0" encoding="utf-8"?>
<!-- Generator: Adobe Illustrator 24.3.0, SVG Export Plug-In . SVG Version: 6.00 Build 0)  -->
<svg version="1.1" id="Layer_1" xmlns="http://www.w3.org/2000/svg" xmlns:xlink="http://www.w3.org/1999/xlink" x="0px" y="0px"
	 viewBox="0 0 512 467" style="enable-background:new 0 0 512 467;" xml:space="preserve">
<style type="text/css">
	.st0{fill:#BA0C2F;}
	.st1{fill:#FFFFFF;}
	.st2{fill:#BA0C2F;stroke:#FC003C;stroke-width:10;stroke-miterlimit:10;}
</style>
<g>
	<path class="st0" d="M460.8,404c21.4,0,38.8-22,38.8-49.1V157.3c0-27.1-17.4-49.1-38.8-49.1h-103V59c0-27.1-17.4-49.1-38.8-49.1
		H53.2c-21.4,0-38.8,22-38.8,49.1v197.6c0,27.1,17.4,49.1,38.8,49.1h103v49.1c0,27.1,17.4,49.1,38.8,49.1h34.4v44.9
		c0,6.1,3.9,11.1,8.8,11.1c1.6,0,3.2-0.6,4.6-1.6l69.9-54.4H460.8z M53.2,283.6c-11.8,0-21.3-12.1-21.3-26.9V59
		c0-14.9,9.5-26.9,21.3-26.9H319c11.8,0,21.3,12.1,21.3,26.9v49.1H195c-9,0-17.7,4-24.7,11.2H57.5c-4.8,0-8.8,5-8.8,11.1
		c0,6.1,3.9,11.1,8.8,11.1h100.7c-1.4,5.1-2.1,10.4-2.1,15.7v16.8H57.5c-4.8,0-8.8,5-8.8,11.1c0,6.1,3.9,11.1,8.8,11.1h98.6v32.5
		H57.5c-4.8,0-8.8,5-8.8,11.1c0,6.1,3.9,11.1,8.8,11.1h98.6v32.6L53.2,283.6z M305.7,383.5L247,429.1v-36.1c0-6.1-3.9-11.1-8.8-11.1
		H195c-11.8,0-21.3-12.1-21.3-26.9V157.3c0-14.9,9.5-26.9,21.3-26.9h265.8c11.8,0,21.3,12.1,21.3,26.9v197.6
		c0,14.9-9.5,26.9-21.3,26.9H310.3C308.7,381.8,307.1,382.4,305.7,383.5z M47.4,110.9"/>
</g>
<path class="st1" d="M177,113.8c0,0-20.8,17.6-20.7,40.8S50.7,148,50.7,148l-11-30.7l33.1-20.6L177,113.8z"/>
<rect x="37.3" y="163.5" class="st1" width="118.9" height="102.6"/>
<line class="st2" x1="212.2" y1="184" x2="438.3" y2="184"/>
<line class="st2" x1="214.9" y1="227.2" x2="441" y2="227.2"/>
<line class="st2" x1="214.9" y1="270.4" x2="441" y2="270.4"/>
<line class="st2" x1="214.9" y1="313.6" x2="441" y2="313.6"/>
</svg>
