<svg xmlns="http://www.w3.org/2000/svg" width="15" height="18" viewBox="0 0 15 18">
  <defs>
    <style>
      .cls-1 {
        fill: #33414e;
        fill-rule: evenodd;
      }
    </style>
  </defs>
  <path class="cls-1" d="M0.546,0A0.625,0.625,0,0,0,0,.6v14a0.628,0.628,0,0,0,.608.6H5.715A4.875,4.875,0,0,0,15,13.2a4.824,4.824,0,0,0-3.648-4.643V3.8a0.6,0.6,0,0,0-.177-0.425l-3.243-3.2A0.62,0.62,0,0,0,7.5,0H0.546ZM1.218,1.2H6.893V3.8a0.628,0.628,0,0,0,.608.6h2.635v4a4.842,4.842,0,0,0-4.864,4.8,4.754,4.754,0,0,0,.07.8H1.218V1.2ZM8.109,2.044L9.281,3.2H8.109V2.044ZM10.136,9.6a3.6,3.6,0,1,1-3.648,3.6,3.615,3.615,0,0,1,3.648-3.6h0Zm-0.006,1.187a0.628,0.628,0,0,0-.6.613v2.15L9.35,13.375a0.609,0.609,0,0,0-1.01.219,0.608,0.608,0,0,0,.149.625l1.216,1.2a0.639,0.639,0,0,0,.861,0l1.216-1.2a0.619,0.619,0,0,0,.025-0.875,0.639,0.639,0,0,0-.886.031l-0.177.175V11.4a0.628,0.628,0,0,0-.614-0.612h0ZM2.5,4h3a0.5,0.5,0,0,1,0,1h-3A0.5,0.5,0,0,1,2.5,4Zm0,2h5a0.5,0.5,0,0,1,0,1h-5A0.5,0.5,0,0,1,2.5,6Zm0,4h3a0.5,0.5,0,0,1,0,1h-3A0.5,0.5,0,0,1,2.5,10Zm0-2h6a0.5,0.5,0,0,1,0,1h-6A0.5,0.5,0,0,1,2.5,8Z"/>
</svg>
