<?xml version="1.0" encoding="utf-8"?>
<!-- Generator: Adobe Illustrator 23.0.2, SVG Export Plug-In . SVG Version: 6.00 Build 0)  -->
<svg version="1.1" id="Layer_1" xmlns="http://www.w3.org/2000/svg" xmlns:xlink="http://www.w3.org/1999/xlink" x="0px" y="0px"
	 viewBox="0 0 30 30" style="enable-background:new 0 0 30 30;" xml:space="preserve">
<g>
	<g>
		<path d="M28.11,8.34l-0.89-0.89c-0.28-0.28-0.65-0.43-1.05-0.43c-0.4,0-0.77,0.15-1.05,0.43L15.01,17.57L4.87,7.43
			C4.6,7.16,4.22,7,3.83,7S3.06,7.16,2.78,7.43L1.89,8.32c-0.58,0.58-0.58,1.52,0,2.1l12.06,12.11C14.23,22.8,14.6,23,15.01,23h0
			c0.4,0,0.77-0.2,1.05-0.48l12.05-12.07c0.28-0.28,0.43-0.66,0.43-1.06C28.54,8.99,28.39,8.62,28.11,8.34z"/>
	</g>
</g>
</svg>
