<svg width="41" height="41" viewBox="0 0 41 41" fill="none" xmlns="http://www.w3.org/2000/svg">
<path d="M39.7876 27.774C39.4234 28.7476 38.5209 29.1114 32.5797 32.1291C33.7044 32.4259 35.2041 33.5081 37.3312 32.0136C38.9823 30.8535 40.5711 28.7113 40.7155 26.4479C39.1262 28.0598 36.8344 26.9621 35.171 27.6155C35.1055 27.6409 32.7014 28.6335 32.5 31.7895C37.9581 28.3886 38.578 28.8472 39.7876 27.774Z" fill="#0A6B37"/>
<path d="M1.64326 27.774C2.00745 28.7476 2.9099 29.1114 8.8511 32.1291C7.72645 32.4259 6.22677 33.5081 4.09965 32.0136C2.44853 30.8535 0.859687 28.7113 0.715332 26.4479C2.30465 28.0598 4.5964 26.9621 6.25979 27.6155C6.32536 27.6409 8.72939 28.6335 8.93083 31.7895C3.47317 28.3886 2.85329 28.8472 1.64326 27.774Z" fill="#0A6B37"/>
<path d="M32.2399 13.1398C31.671 10.0588 28.6325 7.69913 24.9812 7.69913C23.3786 7.69913 21.8662 8.14824 20.6269 8.95634C19.4589 7.74395 17.7233 7 15.8179 7C12.3345 7 9.50121 9.49979 9.50121 12.5723C9.50121 12.7454 9.51017 12.9176 9.5281 13.0884C6.47872 13.4818 4.12988 15.8042 4.12988 18.6017C4.12988 21.6742 6.96367 24.174 10.4466 24.174H11.0886V31.6748C11.0886 32.9938 12.1581 34.0632 13.4771 34.0632H16.3236C16.0962 32.6985 15.8958 31.4691 15.8203 31.0205C15.6273 29.8765 15.5235 29.3425 15.5235 29.3425C15.5235 29.3425 15.4023 28.6938 14.9254 28.4895C14.28 28.2126 12.9662 28.0522 12.6114 25.8275C12.2557 23.6032 12.9223 21.635 13.972 21.4284C15.0631 21.1024 16.4944 22.5483 17.2355 24.6764C17.9762 26.8054 16.8529 27.613 16.3392 28.1376C15.9679 28.5164 16.1812 29.1792 16.1812 29.1792C16.1812 29.1792 16.3019 29.618 16.6935 30.8105C16.8397 31.2563 17.2582 32.6103 17.7044 34.0642H20.2608C20.3948 32.3852 20.5335 30.7294 20.5642 30.1897C20.6246 29.1094 20.5873 28.4249 20.575 28.2452C20.5703 28.1876 20.5675 28.1405 20.5675 28.1093C20.5675 27.8418 19.4556 27.2328 19.349 26.3671C19.2423 25.5015 19.9976 20.9982 20.0259 20.7774C20.0542 20.5566 20.1542 20.5245 20.2005 20.534C20.2467 20.5434 20.2358 20.5812 20.2358 20.5812C20.2358 20.5812 20.1042 24.9349 20.1004 25.0628C20.0967 25.1911 20.0967 25.3156 20.2434 25.3194C20.3892 25.3232 20.4071 25.1373 20.4071 25.1373C20.4071 25.1373 20.642 20.9586 20.6736 20.6915C20.7062 20.4241 20.8302 20.6382 20.8302 20.6382L20.8444 25.0731C20.8444 25.0731 20.8166 25.3548 21.0081 25.3656C21.2685 25.3619 21.226 25.0731 21.226 25.0731L21.2402 20.6382C21.2402 20.6382 21.3652 20.4245 21.3968 20.6915C21.4284 20.9586 21.6638 25.1373 21.6638 25.1373C21.6638 25.1373 21.6817 25.3227 21.8275 25.3194C21.9738 25.3156 21.9738 25.1911 21.97 25.0628C21.9672 24.9349 21.8346 20.5812 21.8346 20.5812C21.8346 20.5812 21.8242 20.5434 21.8704 20.534C21.9162 20.5245 22.0162 20.5566 22.0445 20.7774C22.0733 20.9982 22.8281 25.5015 22.7215 26.3671C22.6149 27.2328 21.503 27.8418 21.503 28.1093C21.503 28.1442 21.4997 28.1975 21.494 28.264C21.4916 28.2961 21.4506 28.8075 21.4883 30.1039C21.5034 30.6251 21.5874 32.3371 21.6747 34.0642H23.8763C24.2188 32.8367 24.5415 31.6871 24.7005 31.087C24.5957 31.0676 24.5014 31.0469 24.4292 31.0252C24.0561 30.9148 24.199 30.8304 24.7467 27.5493C25.3406 23.9858 27.0502 21.9049 27.4668 21.7624C27.8833 21.6204 27.7201 22.2861 27.7201 22.2861L25.8841 30.6667C25.8624 30.7681 25.8388 30.8738 25.8143 30.9846C25.7204 31.4134 25.51 32.6697 25.285 34.0651H27.9536C29.2726 34.0651 30.3421 32.9957 30.3421 31.6767V24.1759H30.9841C34.4675 24.1759 37.3009 21.6761 37.3009 18.6036C37.3013 15.9085 35.1237 13.655 32.2399 13.1398Z" fill="#F58120"/>
</svg>
