<?xml version="1.0" encoding="utf-8"?>
<!-- Generator: Adobe Illustrator 17.0.0, SVG Export Plug-In . SVG Version: 6.00 Build 0)  -->
<!DOCTYPE svg PUBLIC "-//W3C//DTD SVG 1.1//EN" "http://www.w3.org/Graphics/SVG/1.1/DTD/svg11.dtd">
<svg version="1.1" id="Layer_1" xmlns="http://www.w3.org/2000/svg" xmlns:xlink="http://www.w3.org/1999/xlink" x="0px" y="0px"
	 width="16px" height="16px" viewBox="0 0 16 16" enable-background="new 0 0 16 16" xml:space="preserve">
<title>A0EC12CC-A39E-4EE4-8EF2-84496301A24C</title>
<desc>Created with sketchtool.</desc>
<g id="Page-1">
	<g>
		<g id="Our-fleet_3_" transform="translate(-1202.000000, -335.000000)">
			<g id="top_3_" transform="translate(450.000000, 321.000000)">
				<g id="switch_3_" transform="translate(738.000000, 0.000000)">
					<path id="cards_3_" d="M28.4,26.8c0.884,0,1.6,0.716,1.6,1.6S29.284,30,28.4,30s-1.6-0.716-1.6-1.6S27.516,26.8,28.4,26.8z
						 M22,26.8c0.884,0,1.6,0.716,1.6,1.6S22.884,30,22,30s-1.6-0.716-1.6-1.6S21.116,26.8,22,26.8z M15.6,26.8
						c0.884,0,1.6,0.716,1.6,1.6S16.484,30,15.6,30S14,29.284,14,28.4S14.716,26.8,15.6,26.8z M28.4,20.4c0.884,0,1.6,0.716,1.6,1.6
						s-0.716,1.6-1.6,1.6s-1.6-0.716-1.6-1.6S27.516,20.4,28.4,20.4z M22,20.4c0.884,0,1.6,0.716,1.6,1.6s-0.716,1.6-1.6,1.6
						s-1.6-0.716-1.6-1.6S21.116,20.4,22,20.4z M15.6,20.4c0.884,0,1.6,0.716,1.6,1.6s-0.716,1.6-1.6,1.6S14,22.884,14,22
						S14.716,20.4,15.6,20.4z M28.4,14c0.884,0,1.6,0.716,1.6,1.6s-0.716,1.6-1.6,1.6s-1.6-0.716-1.6-1.6S27.516,14,28.4,14z M22,14
						c0.884,0,1.6,0.716,1.6,1.6s-0.716,1.6-1.6,1.6s-1.6-0.716-1.6-1.6S21.116,14,22,14z M15.6,14c0.884,0,1.6,0.716,1.6,1.6
						s-0.716,1.6-1.6,1.6S14,16.484,14,15.6S14.716,14,15.6,14z"/>
				</g>
			</g>
		</g>
	</g>
</g>
</svg>
