<svg xmlns="http://www.w3.org/2000/svg" width="13.758" height="12.609" viewBox="0 0 13.758 12.609">
  <g id="icon-hierarchy" transform="translate(-1.1 -6.4)">
    <path id="Path_482" data-name="Path 482" d="M3.364,97.9H2.4a1.28,1.28,0,0,0-.919.383A1.3,1.3,0,0,0,2.4,100.5h.951a1.28,1.28,0,0,0,.919-.383,1.3,1.3,0,0,0-.908-2.22Zm0,2.154H2.4a.853.853,0,0,1,0-1.706h.951a.854.854,0,0,1,.853.853A.838.838,0,0,1,3.364,100.054Z" transform="translate(0 -81.493)" fill="#ba0c2f"/>
    <path id="Path_483" data-name="Path 483" d="M50.053,97.9H49.1a1.3,1.3,0,1,0,0,2.6h.951a1.3,1.3,0,1,0,0-2.6Z" transform="translate(-41.593 -81.493)" fill="#ba0c2f"/>
    <path id="Path_484" data-name="Path 484" d="M96.653,97.9H95.7a1.28,1.28,0,0,0-.919.383,1.3,1.3,0,0,0,.919,2.22h.951a1.28,1.28,0,0,0,.919-.383,1.3,1.3,0,0,0-.919-2.22Zm0,2.154H95.7a.853.853,0,0,1,0-1.706h.951a.854.854,0,0,1,.853.853A.869.869,0,0,1,96.653,100.054Z" transform="translate(-83.097 -81.493)" fill="#ba0c2f"/>
    <path id="Path_485" data-name="Path 485" d="M101.523,104.233a.106.106,0,0,0-.153,0l-.437.416a.106.106,0,0,0,0,.153.118.118,0,0,0,.077.033.1.1,0,0,0,.077-.033l.437-.416A.131.131,0,0,0,101.523,104.233Z" transform="translate(-88.886 -87.104)" fill="#ba0c2f"/>
    <path id="Path_486" data-name="Path 486" d="M106.259,104.733a.106.106,0,0,0-.153,0l-.973.908a.106.106,0,0,0,0,.153.118.118,0,0,0,.077.033.1.1,0,0,0,.077-.033l.973-.908A.106.106,0,0,0,106.259,104.733Z" transform="translate(-92.626 -87.55)" fill="#ba0c2f"/>
    <path id="Path_487" data-name="Path 487" d="M115.1,110.033l-.372.339a.106.106,0,0,0,0,.153.118.118,0,0,0,.077.033.1.1,0,0,0,.077-.033l.372-.339a.108.108,0,1,0-.153-.153Z" transform="translate(-101.176 -92.27)" fill="#ba0c2f"/>
    <path id="Path_488" data-name="Path 488" d="M14.217,68.222a.317.317,0,0,0,.317-.317v-.776h4.539V67.9a.317.317,0,0,0,.634,0v-.776h4.517V67.9a.317.317,0,0,0,.634,0V66.811a.317.317,0,0,0-.317-.317H19.7v-.776a.317.317,0,0,0-.634,0v.776H14.217a.317.317,0,0,0-.317.317V67.9A.325.325,0,0,0,14.217,68.222Z" transform="translate(-11.4 -52.548)" fill="#ba0c2f"/>
    <path id="Path_489" data-name="Path 489" d="M46.621,12.021a9.912,9.912,0,0,0-.1-1.28.534.534,0,0,0-.273-.372c-.481-.241-1.52-.591-1.52-.591v-.35l.033-.022a1.04,1.04,0,0,0,.383-.634l.011-.033h.033A.4.4,0,0,0,45.55,8.5a.452.452,0,0,0,.055-.208.3.3,0,0,0-.033-.142.158.158,0,0,0-.077-.12l-.1-.055.022-.109a1.213,1.213,0,0,0-1.2-1.465h-.109a1.213,1.213,0,0,0-1.2,1.465l.022.109-.1.055a.208.208,0,0,0-.077.12.337.337,0,0,0-.033.142.452.452,0,0,0,.055.208.384.384,0,0,0,.361.241h.033l.011.033a.992.992,0,0,0,.383.634l.033.022v.35a15.476,15.476,0,0,0-1.52.591.505.505,0,0,0-.273.372,12.812,12.812,0,0,0-.1,1.28h4.921Z" transform="translate(-36.16)" fill="#ba0c2f"/>
  </g>
</svg>
