<svg id="fuel_3_" data-name="fuel (3)" xmlns="http://www.w3.org/2000/svg" width="22.213" height="22.213" viewBox="0 0 22.213 22.213">
  <path id="Path_18" data-name="Path 18" d="M3.267,235.227H1.307V233.92H2.613v-1.307H1.307v-1.307h1.96V230H0v6.533H3.267Z" transform="translate(0 -219.982)"/>
  <path id="Path_19" data-name="Path 19" d="M438.267,231.307V230H435v6.533h1.307V233.92h1.307v-1.307h-1.307v-1.307Z" transform="translate(-416.053 -219.982)"/>
  <path id="Path_20" data-name="Path 20" d="M29.374,147.9a3.272,3.272,0,1,0,.806-1.825l-7.03-4.062-.654,1.131,7.029,4.061A3.264,3.264,0,0,0,29.374,147.9Zm3.247-1.619a1.96,1.96,0,1,1-1.948,1.756c.005-.052.013-.1.023-.154l1.6.924.654-1.131-1.6-.924A1.956,1.956,0,0,1,32.621,146.28Z" transform="translate(-21.516 -135.827)" fill="#ba0c2f"/>
  <path id="Path_21" data-name="Path 21" d="M240,0h1.307V2.613H240Z" transform="translate(-229.547)"/>
  <path id="Path_22" data-name="Path 22" d="M0,0H1.307V1.742H0Z" transform="translate(7.489 1.432) rotate(-15.009)"/>
  <path id="Path_23" data-name="Path 23" d="M0,0H1.307V1.742H0Z" transform="matrix(0.866, -0.5, 0.5, 0.866, 4.77, 2.744)"/>
  <path id="Path_24" data-name="Path 24" d="M0,0H1.307V1.742H0Z" transform="translate(2.482 4.714) rotate(-45)"/>
  <path id="Path_25" data-name="Path 25" d="M0,0H1.742V1.307H0Z" transform="translate(13.015 2.778) rotate(-74.991)"/>
  <path id="Path_26" data-name="Path 26" d="M0,0H1.742V1.307H0Z" transform="matrix(0.5, -0.866, 0.866, 0.5, 15.441, 3.6)"/>
  <path id="Path_27" data-name="Path 27" d="M0,0H1.742V1.307H0Z" transform="translate(17.572 5.023) rotate(-45)"/>
  <path id="Path_28" data-name="Path 28" d="M0,0H1.742V1.307H0Z" transform="matrix(0.866, -0.5, 0.5, 0.866, 19.266, 6.947)"/>
  <path id="Path_29" data-name="Path 29" d="M58.956,412.468H57.742a10.431,10.431,0,0,1-7.424-3.075l-.924.924a11.806,11.806,0,0,0,8.348,3.458h1.214a11.807,11.807,0,0,0,8.348-3.458l-.924-.924A10.431,10.431,0,0,1,58.956,412.468Z" transform="translate(-47.243 -391.562)"/>
</svg>
