<svg xmlns="http://www.w3.org/2000/svg" xmlns:xlink="http://www.w3.org/1999/xlink" width="24" height="24" viewBox="0 0 24 24">
  <defs>
    <clipPath id="clip-path">
      <rect id="Rectangle_725" data-name="Rectangle 725" width="24" height="24" fill="none"/>
    </clipPath>
  </defs>
  <g id="icon-bodytype" clip-path="url(#clip-path)">
    <g id="Group_355" data-name="Group 355" transform="translate(0.6 2.399)">
      <path id="Path_703" data-name="Path 703" d="M8.5,48v1.6a.8.8,0,0,1-.8.8H5.3a.8.8,0,0,1-.8-.8V48" transform="translate(-3.3 -31.199)" fill="none" stroke="#ba1f31" stroke-linecap="round" stroke-linejoin="round" stroke-width="1"/>
      <path id="Path_704" data-name="Path 704" d="M49.5,48v1.6a.8.8,0,0,1-.8.8H46.3a.8.8,0,0,1-.8-.8V48" transform="translate(-27.9 -31.199)" fill="none" stroke="#ba1f31" stroke-linecap="round" stroke-linejoin="round" stroke-width="1"/>
      <path id="Path_705" data-name="Path 705" d="M54.3,33.6a1.2,1.2,0,0,0,1.2-1.2V27.848a4,4,0,0,0-.928-2.56L53.5,24" transform="translate(-32.7 -16.799)" fill="none" stroke="#ba1f31" stroke-linecap="round" stroke-linejoin="round" stroke-width="1"/>
      <path id="Path_706" data-name="Path 706" d="M3.5,24,2.428,25.288a4,4,0,0,0-.928,2.56V32.4a1.2,1.2,0,0,0,1.2,1.2" transform="translate(-1.5 -16.799)" fill="none" stroke="#ba1f31" stroke-linecap="round" stroke-linejoin="round" stroke-width="1"/>
      <path id="Path_707" data-name="Path 707" d="M25.3,13.2,23.424,8.29a3.272,3.272,0,0,0-2.612-2.068A45.947,45.947,0,0,0,15.9,6a45.949,45.949,0,0,0-4.912.224A3.272,3.272,0,0,0,8.376,8.29L6.5,13.2" transform="translate(-4.5 -5.996)" fill="none" stroke="#ba1f31" stroke-linecap="round" stroke-linejoin="round" stroke-width="1"/>
      <path id="Path_708" data-name="Path 708" d="M26.494,15.2l-1.356-3.544a2.364,2.364,0,0,0-1.884-1.5c-.664-.088-2.4-.16-3.772-.16s-3.108.072-3.772.16a2.364,2.364,0,0,0-1.884,1.5L12.47,15.2Z" transform="translate(-8.082 -8.399)" fill="none" stroke="#000" stroke-linecap="round" stroke-linejoin="round" stroke-width="1"/>
      <circle id="Ellipse_76" data-name="Ellipse 76" cx="1.2" cy="1.2" r="1.2" transform="translate(2.4 9.801)" fill="none" stroke="#000" stroke-linecap="round" stroke-linejoin="round" stroke-width="1"/>
      <circle id="Ellipse_77" data-name="Ellipse 77" cx="1.2" cy="1.2" r="1.2" transform="translate(18 9.801)" fill="none" stroke="#000" stroke-linecap="round" stroke-linejoin="round" stroke-width="1"/>
      <line id="Line_161" data-name="Line 161" x2="2" transform="translate(20.8 7.201)" fill="none" stroke="#000" stroke-linecap="round" stroke-linejoin="round" stroke-width="1"/>
      <line id="Line_162" data-name="Line 162" x2="2" transform="translate(0 7.201)" fill="none" stroke="#000" stroke-linecap="round" stroke-linejoin="round" stroke-width="1"/>
      <rect id="Rectangle_724" data-name="Rectangle 724" width="8.4" height="2.4" transform="translate(7.2 12.401)" fill="none" stroke="#000" stroke-linecap="round" stroke-linejoin="round" stroke-width="1"/>
      <circle id="Ellipse_78" data-name="Ellipse 78" cx="1" cy="1" r="1" transform="translate(7.6 3.201)" fill="none" stroke="#000" stroke-linecap="round" stroke-linejoin="round" stroke-width="1"/>
      <path id="Path_709" data-name="Path 709" d="M33,20.6a1.6,1.6,0,0,1,3.2,0" transform="translate(-20.4 -13.799)" fill="none" stroke="#000" stroke-linecap="round" stroke-linejoin="round" stroke-width="1"/>
      <path id="Path_710" data-name="Path 710" d="M19,20.6a1.6,1.6,0,0,1,3.2,0" transform="translate(-12 -13.799)" fill="none" stroke="#000" stroke-linecap="round" stroke-linejoin="round" stroke-width="1"/>
      <circle id="Ellipse_79" data-name="Ellipse 79" cx="1" cy="1" r="1" transform="translate(13.2 3.201)" fill="none" stroke="#000" stroke-linecap="round" stroke-linejoin="round" stroke-width="1"/>
      <path id="Path_769" data-name="Path 769" d="M0,0H15.6" transform="translate(3.6 16.801)" fill="none" stroke="#ba1f31" stroke-linecap="round" stroke-width="1"/>
    </g>
  </g>
</svg>
