<svg xmlns="http://www.w3.org/2000/svg" width="25" height="25" viewBox="0 0 25 25">
  <g id="icon-drivetrain" transform="translate(-839 -966.5)">
    <path id="Path_715" data-name="Path 715" d="M40.4,23.571h1.2A2.255,2.255,0,0,0,44,21.514V17.057A2.255,2.255,0,0,0,41.6,15H40.4A2.255,2.255,0,0,0,38,17.057v1.371H35.28l-.12-.1-2-1.714a1.55,1.55,0,0,0-.52-.309,1.663,1.663,0,0,0-.92-.069.651.651,0,0,0-.28.069,1.55,1.55,0,0,0-.52.309l-2,1.714-.12.1H26V17.057A2.255,2.255,0,0,0,23.6,15H22.4A2.255,2.255,0,0,0,20,17.057v4.457a2.255,2.255,0,0,0,2.4,2.057h1.2A2.255,2.255,0,0,0,26,21.514V20.143h2.8l.12.1,2,1.714c.08.069.2.137.28.206v9.669a.793.793,0,0,0-.28.206l-2,1.714-.12.1H26V32.486a2.255,2.255,0,0,0-2.4-2.057H22.4A2.255,2.255,0,0,0,20,32.486v4.457A2.255,2.255,0,0,0,22.4,39h1.2A2.255,2.255,0,0,0,26,36.943V35.571h2.8l.12.1,2,1.714a1.55,1.55,0,0,0,.52.309,1.8,1.8,0,0,0,1.2,0,1.55,1.55,0,0,0,.52-.309l2-1.714.12-.1H38v1.371A2.255,2.255,0,0,0,40.4,39h1.2A2.255,2.255,0,0,0,44,36.943V32.486a2.255,2.255,0,0,0-2.4-2.057H40.4A2.255,2.255,0,0,0,38,32.486v1.371H35.28l-.12-.1-1.96-1.68V21.926l1.96-1.68.12-.1H38v1.371A2.255,2.255,0,0,0,40.4,23.571ZM34.04,34.783l-2,1.68-2-1.646,2-1.646h0Zm-2-13.749-2-1.646,2-1.646h0l2,1.611Z" transform="translate(819.5 952)" fill="none" stroke="#000" stroke-width="1"/>
    <rect id="Rectangle_738" data-name="Rectangle 738" width="3" height="5" rx="1.5" transform="translate(841 969)" fill="#ba1f31"/>
    <rect id="Rectangle_741" data-name="Rectangle 741" width="3" height="5" rx="1.5" transform="translate(841 984)" fill="#ba1f31"/>
    <rect id="Rectangle_739" data-name="Rectangle 739" width="3" height="5" rx="1.5" transform="translate(859 969)" fill="#ba1f31"/>
    <rect id="Rectangle_740" data-name="Rectangle 740" width="3" height="5" rx="1.5" transform="translate(859 984)" fill="#ba1f31"/>
  </g>
</svg>
