<svg xmlns="http://www.w3.org/2000/svg" width="15.931" height="13.734" viewBox="0 0 15.931 13.734">
  <g id="noun_History_3565532" transform="translate(-15.087 -19.967)">
    <g id="Group_21" data-name="Group 21" transform="translate(15.087 19.967)">
      <g id="Group_20" data-name="Group 20" transform="translate(0)">
        <g id="Group_19" data-name="Group 19">
          <path id="Path_237" data-name="Path 237" d="M31.549,33.7a6.936,6.936,0,0,1-4-1.279.678.678,0,1,1,.731-1.142c.023,0,.023.023.046.046a5.515,5.515,0,1,0-2.078-2.992.7.7,0,0,1-.48.845.683.683,0,0,1-.845-.48h0a6.869,6.869,0,1,1,8.5,4.75A7.264,7.264,0,0,1,31.549,33.7Z" transform="translate(-22.479 -19.967)"/>
          <path id="Path_238" data-name="Path 238" d="M54.367,43.124a.524.524,0,0,1-.32-.091L52.243,42a.681.681,0,0,1-.343-.594V37.985a.685.685,0,0,1,1.37,0v3.06l1.439.845a.672.672,0,0,1,.251.914A.781.781,0,0,1,54.367,43.124Z" transform="translate(-43.493 -33.341)"/>
          <path id="Path_239" data-name="Path 239" d="M18.2,47.881a.657.657,0,0,1-.48-.206L15.3,45.255a.678.678,0,0,1,.936-.982l.023.023,1.964,1.964L20.183,44.3a.683.683,0,0,1,.959.046.665.665,0,0,1,0,.891L18.7,47.7A.8.8,0,0,1,18.2,47.881Z" transform="translate(-15.087 -38.578)"/>
        </g>
      </g>
    </g>
  </g>
</svg>
