<svg xmlns="http://www.w3.org/2000/svg" xmlns:xlink="http://www.w3.org/1999/xlink" width="60" height="60" viewBox="0 0 60 60">
  <defs>
    <clipPath id="clip-path">
      <rect id="Rectangle_106" data-name="Rectangle 106" width="60" height="60" fill="none"/>
    </clipPath>
  </defs>
  <g id="Untitled-1-81" clip-path="url(#clip-path)">
    <g id="Group_88" data-name="Group 88">
      <path id="Path_517" data-name="Path 517" d="M44.61,58.24A15,15,0,0,1,34,32.64a1,1,0,1,1,1.41,1.41A13,13,0,0,0,44.6,56.24a1,1,0,1,1,0,2" fill="#ba1f31"/>
      <path id="Path_518" data-name="Path 518" d="M54.51,54.14a1,1,0,0,1-.71-1.7,13,13,0,0,0-9.19-22.2,1,1,0,0,1,0-2A15,15,0,0,1,55.22,53.85a1,1,0,0,1-.71.29" fill="#ba1f31"/>
      <path id="Path_519" data-name="Path 519" d="M36.52,39.15a1,1,0,0,1-1-1V33.24H30.61a1,1,0,0,1,0-2h5.91a1,1,0,0,1,1,1v5.91a1,1,0,0,1-1,1" fill="#ba1f31"/>
      <path id="Path_520" data-name="Path 520" d="M58.61,55.24H52.7a1,1,0,0,1-1-1v-5.9a1,1,0,0,1,2,0v4.9h4.91a1,1,0,0,1,0,2" fill="#ba1f31"/>
      <path id="Path_521" data-name="Path 521" d="M12.61,55.24h-6a3,3,0,0,1-3-3v-5a1,1,0,0,1,2,0v5a1,1,0,0,0,1,1h6a1,1,0,0,0,1-1v-5a1,1,0,0,1,2,0v5a3,3,0,0,1-3,3"/>
      <path id="Path_522" data-name="Path 522" d="M58.61,33.86a1,1,0,0,1-1-1,9,9,0,0,0-2.08-5.76l-2.69-3.21a1.016,1.016,0,0,1,1.57-1.29l2.68,3.22a11,11,0,0,1,2.55,7,1,1,0,0,1-1,1"/>
      <path id="Path_523" data-name="Path 523" d="M27,48.24H10.61a1,1,0,1,1,0-2H27a1,1,0,0,1,0,2"/>
      <path id="Path_524" data-name="Path 524" d="M4.61,48.24a4,4,0,0,1-4-4V32.86a11.07,11.07,0,0,1,2.55-7L5.84,22.6a1,1,0,0,1,1.54,1.29L4.7,27.1a9,9,0,0,0-2.09,5.76V44.24a2,2,0,0,0,2,2,1,1,0,0,1,0,2"/>
      <path id="Path_525" data-name="Path 525" d="M53.61,24.24a1,1,0,0,1-.93-.64L48,11.33a7.18,7.18,0,0,0-5.73-4.54,115.876,115.876,0,0,0-12.15-.55A115.511,115.511,0,0,0,18,6.79a7.16,7.16,0,0,0-5.73,4.54L7.55,23.6a1,1,0,0,1-1.87-.71l4.69-12.28a9.17,9.17,0,0,1,7.32-5.8,118,118,0,0,1,12.42-.57,117.81,117.81,0,0,1,12.42.57,9.17,9.17,0,0,1,7.33,5.8l4.69,12.28A1,1,0,0,1,54,24.18a1.13,1.13,0,0,1-.36.06"/>
      <path id="Path_526" data-name="Path 526" d="M49,24.24H11.24a1,1,0,0,1-.94-1.35L14,13.34a7.35,7.35,0,0,1,5.88-4.65,100.691,100.691,0,0,1,10.28-.45,100.919,100.919,0,0,1,10.29.45,7.32,7.32,0,0,1,5.87,4.65l3.65,9.55A1,1,0,0,1,49,24.24m-36.3-2H47.54l-3.13-8.19a5.37,5.37,0,0,0-4.28-3.38c-1.68-.23-6.26-.43-10-.43s-8.34.2-10,.43a5.34,5.34,0,0,0-4.28,3.38Z"/>
      <path id="Path_527" data-name="Path 527" d="M10.61,36.74a4,4,0,1,1,4-4,4,4,0,0,1-4,4m0-6a2,2,0,1,0,2,2,2,2,0,0,0-2-2"/>
      <path id="Path_528" data-name="Path 528" d="M58.61,24.24h-5a1,1,0,0,1,0-2h5a1,1,0,0,1,0,2"/>
      <path id="Path_529" data-name="Path 529" d="M6.61,24.24h-5a1,1,0,0,1,0-2h5a1,1,0,0,1,0,2"/>
      <path id="Path_530" data-name="Path 530" d="M25.61,43.24h-6a1,1,0,0,1-1-1v-6a1,1,0,0,1,1-1h8a1,1,0,1,1,0,2h-7v4h5a1,1,0,1,1,0,2"/>
      <path id="Path_531" data-name="Path 531" d="M23.11,19.24a3.5,3.5,0,1,1,3.5-3.5,3.5,3.5,0,0,1-3.5,3.5m0-5a1.5,1.5,0,1,0,1.5,1.5,1.5,1.5,0,0,0-1.5-1.5"/>
      <path id="Path_532" data-name="Path 532" d="M41.11,23.24a1,1,0,0,1-1-1,3,3,0,0,0-6,0,1,1,0,1,1-2,0,5,5,0,0,1,10,0,1,1,0,0,1-1,1"/>
      <path id="Path_533" data-name="Path 533" d="M27.11,23.24a1,1,0,0,1-1-1,3,3,0,0,0-6,0,1,1,0,0,1-2,0,5,5,0,0,1,10,0,1,1,0,0,1-1,1"/>
      <path id="Path_534" data-name="Path 534" d="M37.11,19.24a3.5,3.5,0,1,1,3.5-3.5,3.5,3.5,0,0,1-3.5,3.5m0-5a1.5,1.5,0,1,0,1.5,1.5,1.5,1.5,0,0,0-1.5-1.5"/>
      <line id="Line_305" data-name="Line 305" x2="2.58" transform="translate(42.11 41.77)" fill="none" stroke="#ba1f31" stroke-linecap="round" stroke-linejoin="round" stroke-width="2"/>
      <path id="Path_535" data-name="Path 535" d="M42.11,40.48a2.58,2.58,0,0,1,2.58-2.59" fill="none" stroke="#ba1f31" stroke-linecap="round" stroke-linejoin="round" stroke-width="2"/>
      <line id="Line_306" data-name="Line 306" y2="6.46" transform="translate(42.11 40.48)" fill="none" stroke="#ba1f31" stroke-linecap="round" stroke-linejoin="round" stroke-width="2"/>
      <line id="Line_307" data-name="Line 307" x2="6.47" transform="translate(40.81 46.94)" fill="none" stroke="#ba1f31" stroke-linecap="round" stroke-linejoin="round" stroke-width="2"/>
    </g>
  </g>
</svg>
