<svg xmlns="http://www.w3.org/2000/svg" width="25" height="20" viewBox="0 0 25 20">
  <g id="icon-luggagecapacity" transform="translate(-579 -556)">
    <g id="Rectangle_1" data-name="Rectangle 1" transform="translate(579 560)" fill="#fff" stroke="#000" stroke-width="2">
      <rect width="25" height="16" rx="2" stroke="none"/>
      <rect x="1" y="1" width="23" height="14" rx="1" fill="none"/>
    </g>
    <g id="Rectangle_2" data-name="Rectangle 2" transform="translate(586 556)" fill="none" stroke="#000" stroke-width="1.5">
      <path d="M2,0H9a2,2,0,0,1,2,2V5a0,0,0,0,1,0,0H0A0,0,0,0,1,0,5V2A2,2,0,0,1,2,0Z" stroke="none"/>
      <path d="M2,.75H9A1.25,1.25,0,0,1,10.25,2V3.5a.75.75,0,0,1-.75.75h-8A.75.75,0,0,1,.75,3.5V2A1.25,1.25,0,0,1,2,.75Z" fill="none"/>
    </g>
    <g id="Rectangle_3" data-name="Rectangle 3" transform="translate(584.194 562)" fill="#fff" stroke="#ba0c2f" stroke-width="1">
      <rect width="1.5" height="12" stroke="none"/>
      <rect x="0.5" y="0.5" width="0.5" height="11" fill="none"/>
    </g>
    <g id="Rectangle_4" data-name="Rectangle 4" transform="translate(597.697 562)" fill="#fff" stroke="#ba0c2f" stroke-width="1">
      <rect width="1.5" height="12" stroke="none"/>
      <rect x="0.5" y="0.5" width="0.5" height="11" fill="none"/>
    </g>
  </g>
</svg>
