<svg xmlns="http://www.w3.org/2000/svg" xmlns:xlink="http://www.w3.org/1999/xlink" width="24" height="24" viewBox="0 0 24 24">
  <defs>
    <clipPath id="clip-path">
      <rect id="Rectangle_737" data-name="Rectangle 737" width="24" height="24" fill="none"/>
    </clipPath>
  </defs>
  <g id="icon-menufacturer" clip-path="url(#clip-path)">
    <g id="Group_366" data-name="Group 366" transform="translate(11.672 12.544)">
      <path id="Path_759" data-name="Path 759" d="M41.336,34.328l-6.2,6.572L29.18,34.328,32.7,31.36h5.128Z" transform="translate(-29.18 -31.36)" fill="none" stroke="#ba1f31" stroke-linecap="round" stroke-linejoin="round" stroke-width="1"/>
      <path id="Path_770" data-name="Path 770" d="M0,0H11.756" transform="translate(0.084 2.912)" fill="none" stroke="#ba1f31" stroke-linecap="round" stroke-width="1"/>
    </g>
    <path id="Path_760" data-name="Path 760" d="M43.146,31.59l-2.6,9.448L38.21,31.59" transform="translate(-22.926 -18.954)" fill="none" stroke="#ba1f31" stroke-linecap="round" stroke-linejoin="round" stroke-width="1"/>
    <g id="Group_367" data-name="Group 367" transform="translate(0.552 2.295)">
      <path id="Path_761" data-name="Path 761" d="M8.38,47.74v2a.8.8,0,0,1-.8.8H5.18a.8.8,0,0,1-.8-.8v-2" transform="translate(-3.18 -30.939)" fill="none" stroke="#000" stroke-linecap="round" stroke-linejoin="round" stroke-width="1"/>
      <path id="Path_762" data-name="Path 762" d="M55.38,27.612a4,4,0,0,0-.928-2.544L53.38,23.78" transform="translate(-32.58 -16.563)" fill="none" stroke="#000" stroke-linecap="round" stroke-linejoin="round" stroke-width="1"/>
      <line id="Line_211" data-name="Line 211" x2="8.148" transform="translate(3.6 16.801)" fill="none" stroke="#000" stroke-linecap="round" stroke-linejoin="round" stroke-width="1"/>
      <path id="Path_763" data-name="Path 763" d="M3.38,23.74l-1.072,1.3A4,4,0,0,0,1.38,27.6V32.14a1.2,1.2,0,0,0,1.2,1.2" transform="translate(-1.38 -16.539)" fill="none" stroke="#000" stroke-linecap="round" stroke-linejoin="round" stroke-width="1"/>
      <path id="Path_764" data-name="Path 764" d="M25.18,12.938,23.3,8.03a3.272,3.272,0,0,0-2.612-2.068,46.064,46.064,0,0,0-4.912-.224,45.949,45.949,0,0,0-4.912.224A3.264,3.264,0,0,0,8.256,8.03L6.38,12.938" transform="translate(-4.38 -5.736)" fill="none" stroke="#000" stroke-linecap="round" stroke-linejoin="round" stroke-width="1"/>
      <path id="Path_765" data-name="Path 765" d="M26.1,15.346l-1.456-3.82a2.532,2.532,0,0,0-2.032-1.6c-.716-.1-2.6-.176-4.06-.176s-3.348.076-4.06.176a2.528,2.528,0,0,0-2.032,1.6L11,15.346Z" transform="translate(-7.152 -8.145)" fill="none" stroke="#000" stroke-linecap="round" stroke-linejoin="round" stroke-width="1"/>
      <circle id="Ellipse_92" data-name="Ellipse 92" cx="1.2" cy="1.2" r="1.2" transform="translate(2.4 9.801)" fill="none" stroke="#000" stroke-linecap="round" stroke-linejoin="round" stroke-width="1"/>
      <line id="Line_212" data-name="Line 212" x2="2" transform="translate(20.8 7.201)" fill="none" stroke="#000" stroke-linecap="round" stroke-linejoin="round" stroke-width="1"/>
      <line id="Line_213" data-name="Line 213" x2="2" transform="translate(0 7.201)" fill="none" stroke="#000" stroke-linecap="round" stroke-linejoin="round" stroke-width="1"/>
      <path id="Path_766" data-name="Path 766" d="M21.78,36.74h-2.4v2.4h2.8" transform="translate(-12.18 -24.339)" fill="none" stroke="#000" stroke-linecap="round" stroke-linejoin="round" stroke-width="1"/>
      <circle id="Ellipse_93" data-name="Ellipse 93" cx="1" cy="1" r="1" transform="translate(7.6 3.201)" fill="none" stroke="#000" stroke-linecap="round" stroke-linejoin="round" stroke-width="1"/>
      <path id="Path_767" data-name="Path 767" d="M32.88,20.34a1.6,1.6,0,1,1,3.2,0" transform="translate(-20.28 -13.539)" fill="none" stroke="#000" stroke-linecap="round" stroke-linejoin="round" stroke-width="1"/>
      <path id="Path_768" data-name="Path 768" d="M18.88,20.34a1.6,1.6,0,1,1,3.2,0" transform="translate(-11.88 -13.539)" fill="none" stroke="#000" stroke-linecap="round" stroke-linejoin="round" stroke-width="1"/>
      <circle id="Ellipse_94" data-name="Ellipse 94" cx="1" cy="1" r="1" transform="translate(13.2 3.201)" fill="none" stroke="#000" stroke-linecap="round" stroke-linejoin="round" stroke-width="1"/>
    </g>
  </g>
</svg>
