<?xml version="1.0" encoding="UTF-8"?>
<svg width="20px" height="14px" viewBox="0 0 20 14" version="1.1" xmlns="http://www.w3.org/2000/svg" xmlns:xlink="http://www.w3.org/1999/xlink">
    <!-- Generator: sketchtool 57.1 (101010) - https://sketch.com -->
    <title>A51DD6FA-76CE-49E1-861C-3C0F04C86855</title>
    <desc>Created with sketchtool.</desc>
    <g id="Page-1" stroke="none" stroke-width="1" fill="none" fill-rule="evenodd">
        <g id="Our-fleet" transform="translate(-1243.000000, -336.000000)" fill="#000000">
            <g id="top" transform="translate(450.000000, 321.000000)">
                <g id="switch" transform="translate(738.000000, 0.000000)">
                    <path d="M75,27 L75,29 L61,29 L61,27 L75,27 Z M56.5,26 C57.3284271,26 58,26.6715729 58,27.5 C58,28.3284271 57.3284271,29 56.5,29 C55.6715729,29 55,28.3284271 55,27.5 C55,26.6715729 55.6715729,26 56.5,26 Z M56.5,20.5 C57.3284271,20.5 58,21.1715729 58,22 C58,22.8284271 57.3284271,23.5 56.5,23.5 C55.6715729,23.5 55,22.8284271 55,22 C55,21.1715729 55.6715729,20.5 56.5,20.5 Z M75,21 L75,23 L61,23 L61,21 L75,21 Z M56.5,15 C57.3284271,15 58,15.6715729 58,16.5 C58,17.3284271 57.3284271,18 56.5,18 C55.6715729,18 55,17.3284271 55,16.5 C55,15.6715729 55.6715729,15 56.5,15 Z M75,15 L75,17 L61,17 L61,15 L75,15 Z" id="list"></path>
                </g>
            </g>
        </g>
    </g>
</svg>