<svg xmlns="http://www.w3.org/2000/svg" width="12.571" height="16.235" viewBox="0 0 12.571 16.235"><path d="M23.562,9.306H15.938V6.059A2.231,2.231,0,0,1,18.3,4.029a2.231,2.231,0,0,1,2.363,2.029L20.7,7.641h2.363l-.036-1.582C23.026,3.813,20.916,2,18.3,2s-4.726,1.813-4.726,4.059V9.306H13.04A.983.983,0,0,0,12,10.2v7.143a.983.983,0,0,0,1.04.893H23.53a.983.983,0,0,0,1.04-.893V10.2A.934.934,0,0,0,23.562,9.306Zm-4.726,4.329V15.1a.478.478,0,0,1-.536.433.5.5,0,0,1-.536-.433V13.635a.887.887,0,0,1-.5-1,1.01,1.01,0,0,1,.788-.649,1.038,1.038,0,0,1,1.292.866A.83.83,0,0,1,18.836,13.635Z" transform="translate(-12 -2)" fill="#33414e"/></svg>