<svg width="90" height="89" viewBox="0 0 90 89" fill="none" xmlns="http://www.w3.org/2000/svg">
<path d="M9.32467 71.0139C10.5009 71.4591 11.0879 72.282 11.0879 73.4827C11.0879 74.4383 10.7459 75.1877 10.0608 75.7299C9.71265 76.0004 9.31038 76.1965 8.85298 76.3169C8.39558 76.4374 7.82893 76.4966 7.15406 76.4966H0V76.2516C0.183778 76.2006 0.311401 76.1342 0.383891 76.0525C0.45536 75.9708 0.491095 75.8504 0.491095 75.6921V66.834C0.491095 66.6758 0.45536 66.5553 0.383891 66.4736C0.312422 66.3919 0.184799 66.3256 0 66.2745V66.0295H7.08565C7.76563 66.0295 8.31288 66.0805 8.72638 66.1826C9.1409 66.2847 9.50335 66.4583 9.81577 66.7044C10.4345 67.1903 10.7438 67.8907 10.7438 68.8055C10.7428 69.8276 10.2701 70.5637 9.32467 71.0139ZM2.77606 70.1931H6.7865C7.39501 70.1931 7.81872 70.1032 8.05967 69.9245C8.33023 69.7204 8.46602 69.4028 8.46602 68.974C8.46602 68.534 8.3384 68.2215 8.08213 68.0347C7.82689 67.8479 7.39501 67.755 6.7865 67.755H2.77606V70.1931ZM2.77606 74.7712H6.65581C7.37663 74.7712 7.89529 74.6711 8.21282 74.472C8.57527 74.2423 8.757 73.8666 8.757 73.3449C8.757 72.8282 8.57527 72.4525 8.21282 72.2177C7.90142 72.0186 7.38174 71.9185 6.65581 71.9185H2.77606V74.7712Z" fill="#F58120"/>
<path d="M19.99 73.8275H15.2322L14.5278 75.2998C14.4308 75.504 14.3818 75.6653 14.3818 75.7827C14.3818 76.0074 14.5523 76.1636 14.8943 76.2504V76.4954H11.4321V76.2504C11.6363 76.2095 11.7925 76.138 11.8997 76.0359C12.0069 75.9338 12.1295 75.7348 12.2673 75.4376L16.1164 67.3933C16.2389 67.138 16.3002 66.9328 16.3002 66.7797C16.3002 66.5449 16.1522 66.3764 15.855 66.2733V66.0282H19.5663V66.2733C19.2641 66.3601 19.114 66.5112 19.114 66.7256C19.114 66.8736 19.163 67.0431 19.26 67.232L23.248 75.2988C23.4165 75.6418 23.5645 75.8757 23.6932 76.0002C23.8208 76.1258 23.9923 76.2085 24.2067 76.2493V76.4944H20.3535V76.2493C20.6915 76.1932 20.8609 76.0349 20.8609 75.7736C20.8609 75.6663 20.8099 75.5081 20.7078 75.2978L19.99 73.8275ZM19.3325 72.3941L17.6346 68.6654L15.9102 72.3941H19.3325Z" fill="#F58120"/>
<path d="M27.6818 69.326V75.6909C27.6818 75.8491 27.7175 75.9696 27.789 76.0513C27.8604 76.133 27.9881 76.1993 28.1729 76.2504V76.4954H25.0977V76.2504C25.2814 76.1993 25.4091 76.133 25.4815 76.0513C25.553 75.9696 25.5888 75.8491 25.5888 75.6909V66.8267C25.5888 66.6735 25.553 66.5561 25.4815 66.4734C25.4101 66.3917 25.2825 66.3254 25.0977 66.2743V66.0293H28.6558V66.2743C28.4363 66.3305 28.326 66.4479 28.326 66.6276C28.326 66.7501 28.3975 66.8859 28.5404 67.0339L34.3151 73.0383V66.8267C34.3151 66.6735 34.2794 66.5561 34.2079 66.4734C34.1365 66.3917 34.0088 66.3254 33.8251 66.2743V66.0293H36.9003V66.2743C36.7165 66.3254 36.5878 66.3917 36.5164 66.4734C36.4449 66.5551 36.4092 66.6725 36.4092 66.8267V75.6909C36.4092 75.8491 36.4449 75.9696 36.5164 76.0513C36.5878 76.133 36.7155 76.1993 36.9003 76.2504V76.4954H33.6025V76.2504C33.8169 76.2044 33.9241 76.0942 33.9241 75.9206C33.9241 75.8185 33.7985 75.6398 33.5484 75.3835L27.6818 69.326Z" fill="#F58120"/>
<path d="M39.2763 75.6909V66.8338C39.2763 66.6756 39.2405 66.5551 39.169 66.4734C39.0976 66.3917 38.97 66.3254 38.7852 66.2743V66.0293H44.6242C45.9035 66.0293 46.8857 66.1753 47.5707 66.4663C48.5529 66.891 49.2789 67.5914 49.7495 68.5674C50.1232 69.3342 50.3101 70.2317 50.3101 71.2588C50.3101 73.0639 49.7546 74.4381 48.6448 75.3846C48.1793 75.7838 47.634 76.0686 47.0102 76.2402C46.3864 76.4117 45.5911 76.4974 44.6242 76.4974H38.7852V76.2524C38.9689 76.2014 39.0966 76.135 39.169 76.0533C39.2405 75.9696 39.2763 75.8491 39.2763 75.6909ZM41.5612 74.771H44.4322C45.3481 74.771 46.0362 74.6454 46.4977 74.3952C47.485 73.8582 47.9791 72.8127 47.9791 71.2588C47.9791 70.1347 47.7127 69.2729 47.1807 68.6746C46.8836 68.3428 46.5253 68.106 46.1056 67.9651C45.686 67.8242 45.1275 67.7537 44.4322 67.7537H41.5612V74.771Z" fill="#F58120"/>
<path d="M60.7628 71.9255H54.7277V75.698C54.7277 75.8511 54.7645 75.9706 54.839 76.0543C54.9135 76.1391 55.0391 76.2034 55.2188 76.2504V76.4954H51.9517V76.2504C52.1354 76.1993 52.2631 76.1329 52.3345 76.0513C52.406 75.9696 52.4417 75.8522 52.4417 75.698V66.8256C52.4417 66.6725 52.406 66.5551 52.3345 66.4724C52.2631 66.3907 52.1354 66.3243 51.9517 66.2733V66.0282H55.2188V66.2733C55.035 66.3192 54.9074 66.3846 54.8359 66.4693C54.7645 66.554 54.7287 66.6725 54.7287 66.8256V70.2H60.7638V66.8256C60.7638 66.6725 60.7281 66.553 60.6566 66.4693C60.5851 66.3846 60.4575 66.3202 60.2727 66.2733V66.0282H63.5399V66.2733C63.3561 66.3243 63.2285 66.3907 63.157 66.4724C63.0855 66.554 63.0498 66.6715 63.0498 66.8256V75.698C63.0498 75.8511 63.0855 75.9696 63.157 76.0513C63.2285 76.1329 63.3561 76.1993 63.5399 76.2504V76.4954H60.2727V76.2504C60.4514 76.2044 60.578 76.1391 60.6525 76.0543C60.727 75.9696 60.7638 75.8511 60.7638 75.698V71.9255H60.7628Z" fill="#F58120"/>
<path d="M73.0936 73.8275H68.3358L67.6313 75.2998C67.5343 75.504 67.4853 75.6653 67.4853 75.7827C67.4853 76.0074 67.6558 76.1636 67.9978 76.2504V76.4954H64.5356V76.2504C64.7398 76.2095 64.896 76.138 65.0033 76.0359C65.1105 75.9338 65.233 75.7348 65.3708 75.4376L69.2199 67.3933C69.3425 67.138 69.4037 66.9328 69.4037 66.7797C69.4037 66.5449 69.2557 66.3764 68.9586 66.2733V66.0282H72.6698V66.2733C72.3676 66.3601 72.2175 66.5112 72.2175 66.7256C72.2175 66.8736 72.2666 67.0431 72.3635 67.232L76.3515 75.2988C76.52 75.6418 76.668 75.8757 76.7967 76.0002C76.9243 76.1258 77.0958 76.2085 77.3102 76.2493V76.4944H73.457V76.2493C73.795 76.1932 73.9645 76.0349 73.9645 75.7736C73.9645 75.6663 73.9134 75.5081 73.8113 75.2978L73.0936 73.8275ZM72.436 72.3941L70.7381 68.6654L69.0137 72.3941H72.436Z" fill="#F58120"/>
<path d="M80.7844 69.326V75.6909C80.7844 75.8491 80.8201 75.9696 80.8916 76.0513C80.963 76.133 81.0907 76.1993 81.2744 76.2504V76.4954H78.1992V76.2504C78.383 76.1993 78.5106 76.133 78.5821 76.0513C78.6536 75.9696 78.6893 75.8491 78.6893 75.6909V66.8267C78.6893 66.6735 78.6536 66.5561 78.5821 66.4734C78.5106 66.3917 78.383 66.3254 78.1992 66.2743V66.0293H81.7574V66.2743C81.5379 66.3305 81.4276 66.4479 81.4276 66.6276C81.4276 66.7501 81.4991 66.8859 81.642 67.0339L87.4157 73.0383V66.8267C87.4157 66.6735 87.3799 66.5561 87.3085 66.4734C87.237 66.3917 87.1094 66.3254 86.9246 66.2743V66.0293H89.9998V66.2743C89.816 66.3254 89.6884 66.3917 89.6159 66.4734C89.5444 66.5551 89.5087 66.6725 89.5087 66.8267V75.6909C89.5087 75.8491 89.5444 75.9696 89.6159 76.0513C89.6874 76.133 89.815 76.1993 89.9998 76.2504V76.4954H86.702V76.2504C86.9164 76.2044 87.0236 76.0942 87.0236 75.9206C87.0236 75.8185 86.898 75.6398 86.6479 75.3835L80.7844 69.326Z" fill="#F58120"/>
<path d="M3.03481 82.1968L5.88066 88.3012H5.22099L4.26132 86.2924H1.6326L0.681216 88.3012H0L2.88398 82.1968H3.03481ZM2.95691 83.4929L1.91105 85.7023H3.99779L2.95691 83.4929Z" fill="white"/>
<path d="M8.86377 83.7864H9.45714V84.446C9.63449 84.1858 9.82012 83.9919 10.0174 83.8626C10.2146 83.7333 10.4185 83.6703 10.6323 83.6703C10.793 83.6703 10.9638 83.7217 11.1461 83.8245L10.8428 84.3134C10.7218 84.2604 10.619 84.2339 10.5361 84.2339C10.3422 84.2339 10.1566 84.3134 9.97592 84.4726C9.79692 84.6317 9.65935 84.8786 9.56487 85.2134C9.4936 85.4703 9.45714 85.9908 9.45714 86.7731V88.2996H8.86377V83.7864Z" fill="white"/>
<path d="M15.4406 86.8029L15.9296 87.0598C15.7688 87.3747 15.5832 87.63 15.3727 87.8239C15.1622 88.0178 14.9251 88.1653 14.6616 88.2664C14.3981 88.3675 14.1014 88.4173 13.7682 88.4173C13.0323 88.4173 12.4555 88.1753 12.0412 87.6929C11.6251 87.2106 11.418 86.6653 11.418 86.0554C11.418 85.4819 11.5937 84.9731 11.945 84.5239C12.3909 83.9537 12.9876 83.6686 13.7351 83.6686C14.5042 83.6686 15.1191 83.9603 15.5798 84.5438C15.9064 84.9565 16.0721 85.4703 16.0787 86.0869H12.0163C12.0279 86.6106 12.1953 87.0416 12.5185 87.3764C12.8434 87.7112 13.2428 87.8802 13.7185 87.8802C13.9489 87.8802 14.1727 87.8405 14.3898 87.7609C14.6069 87.6813 14.7926 87.5753 14.945 87.4427C15.0975 87.3101 15.2633 87.0979 15.4406 86.8029ZM15.4406 85.5863C15.3627 85.2764 15.25 85.0294 15.1025 84.8438C14.955 84.6581 14.7577 84.509 14.5141 84.3963C14.2705 84.2836 14.0135 84.2255 13.745 84.2255C13.3025 84.2255 12.9213 84.3681 12.6031 84.6532C12.371 84.8604 12.1937 85.172 12.076 85.5863H15.4406Z" fill="white"/>
<path d="M21.6612 83.7864V88.3013H21.0877V87.5256C20.8441 87.8223 20.5706 88.0444 20.2689 88.1936C19.9656 88.3427 19.6341 88.4173 19.2745 88.4173C18.6347 88.4173 18.0894 88.1853 17.6369 87.7229C17.1844 87.2588 16.959 86.6952 16.959 86.0322C16.959 85.3825 17.1877 84.8256 17.6435 84.3648C18.0993 83.9024 18.6496 83.672 19.291 83.672C19.6623 83.672 19.9971 83.7516 20.2971 83.909C20.5971 84.0665 20.8606 84.3035 21.0877 84.6184V83.788H21.6612V83.7864ZM19.3391 84.2289C19.0159 84.2289 18.7175 84.3085 18.4441 84.4676C18.1706 84.6267 17.9535 84.8505 17.791 85.1372C17.6286 85.424 17.549 85.7289 17.549 86.0488C17.549 86.367 17.6303 86.6704 17.7943 86.9604C17.9584 87.2505 18.1756 87.4759 18.4507 87.6383C18.7258 87.8008 19.0209 87.8803 19.3358 87.8803C19.654 87.8803 19.954 87.8008 20.2391 87.64C20.5242 87.4792 20.743 87.2621 20.8954 86.9886C21.0479 86.7151 21.1258 86.4068 21.1258 86.0637C21.1258 85.5416 20.9535 85.1041 20.6104 84.7543C20.2673 84.4046 19.843 84.2289 19.3391 84.2289Z" fill="white"/>
<path d="M22.8813 82.0427H23.4615V88.2996H22.8813V82.0427Z" fill="white"/>
<path d="M27.5286 82.1089H28.1087V83.7846H29.0303V84.2869H28.1087V88.2996H27.5286V84.2869H26.7363V83.7846H27.5286V82.1089Z" fill="white"/>
<path d="M34.4005 83.7864V88.3013H33.827V87.5256C33.5833 87.8223 33.3098 88.0444 33.0082 88.1936C32.7049 88.3427 32.3734 88.4173 32.0137 88.4173C31.3739 88.4173 30.8286 88.1853 30.3761 87.7229C29.9237 87.2588 29.6982 86.6952 29.6982 86.0322C29.6982 85.3825 29.927 84.8256 30.3828 84.3648C30.8386 83.9024 31.3889 83.672 32.0303 83.672C32.4016 83.672 32.7364 83.7516 33.0364 83.909C33.3364 84.0665 33.5999 84.3035 33.827 84.6184V83.788H34.4005V83.7864ZM32.0784 84.2289C31.7552 84.2289 31.4568 84.3085 31.1833 84.4676C30.9098 84.6267 30.6927 84.8505 30.5303 85.1372C30.3679 85.424 30.2883 85.7289 30.2883 86.0488C30.2883 86.367 30.3695 86.6704 30.5336 86.9604C30.6977 87.2505 30.9148 87.4759 31.19 87.6383C31.4651 87.8008 31.7601 87.8803 32.075 87.8803C32.3933 87.8803 32.6933 87.8008 32.9784 87.64C33.2634 87.4792 33.4822 87.2621 33.6347 86.9886C33.7872 86.7151 33.8651 86.4068 33.8651 86.0637C33.8651 85.5416 33.6927 85.1041 33.3496 84.7543C33.0065 84.4046 32.5822 84.2289 32.0784 84.2289Z" fill="white"/>
<path d="M37.9772 84.2786L37.6042 84.6648C37.2943 84.3631 36.9893 84.2123 36.6926 84.2123C36.5037 84.2123 36.3429 84.2753 36.2086 84.3996C36.0744 84.5239 36.0064 84.6697 36.0064 84.8355C36.0064 84.9813 36.0611 85.1222 36.1722 85.2548C36.2832 85.3907 36.5153 85.5498 36.87 85.7322C37.3026 85.9559 37.5959 86.1714 37.7517 86.3802C37.9042 86.5907 37.9805 86.8277 37.9805 87.0896C37.9805 87.4609 37.8495 87.7742 37.5893 88.0311C37.3291 88.288 37.0026 88.4173 36.6131 88.4173C36.3528 88.4173 36.1042 88.3609 35.8672 88.2465C35.6302 88.1338 35.4346 87.9764 35.2788 87.7775L35.6435 87.3631C35.9401 87.6979 36.2551 87.8653 36.5882 87.8653C36.8202 87.8653 37.0191 87.7907 37.1832 87.6416C37.3473 87.4924 37.4285 87.3167 37.4285 87.1145C37.4285 86.9487 37.3738 86.8012 37.2661 86.6703C37.1584 86.5427 36.9147 86.3819 36.5335 86.1896C36.1258 85.9791 35.849 85.7719 35.7015 85.5681C35.5539 85.3626 35.481 85.1288 35.481 84.867C35.481 84.5239 35.5987 84.2388 35.8324 84.0117C36.0661 83.7847 36.3628 83.6719 36.7191 83.6719C37.1368 83.6686 37.5562 83.8725 37.9772 84.2786Z" fill="white"/>
<path d="M39.512 82.1089H40.0921V83.7846H41.0136V84.2869H40.0921V88.2996H39.512V84.2869H38.7197V83.7846H39.512V82.1089Z" fill="white"/>
<path d="M45.6875 86.8029L46.1764 87.0598C46.0157 87.3747 45.83 87.63 45.6195 87.8239C45.409 88.0178 45.172 88.1653 44.9101 88.2664C44.6466 88.3675 44.3499 88.4173 44.0168 88.4173C43.2809 88.4173 42.7041 88.1753 42.2897 87.6929C41.8737 87.2106 41.6665 86.6653 41.6665 86.0554C41.6665 85.4819 41.8422 84.9731 42.1936 84.5239C42.6394 83.9537 43.2361 83.6686 43.9836 83.6686C44.7527 83.6686 45.3676 83.9603 45.8267 84.5438C46.1532 84.9565 46.319 85.4703 46.3256 86.0869H42.2632C42.2748 86.6106 42.4422 87.0416 42.7654 87.3764C43.0903 87.7112 43.4897 87.8802 43.9654 87.8802C44.1958 87.8802 44.4195 87.8405 44.6367 87.7609C44.8538 87.6813 45.0394 87.5753 45.1919 87.4427C45.3444 87.3101 45.5102 87.0979 45.6875 86.8029ZM45.6875 85.5863C45.6096 85.2764 45.4969 85.0294 45.3494 84.8438C45.2019 84.6581 45.0046 84.509 44.761 84.3963C44.5173 84.2836 44.2604 84.2255 43.9919 84.2255C43.5494 84.2255 43.1682 84.3681 42.8499 84.6532C42.6179 84.8604 42.4405 85.172 42.3229 85.5863H45.6875Z" fill="white"/>
<path d="M51.6215 82.0427V82.6112C51.4076 82.52 51.2253 82.4736 51.0745 82.4736C50.9618 82.4736 50.8673 82.4968 50.7927 82.5416C50.7181 82.588 50.6717 82.6394 50.6518 82.699C50.6319 82.7587 50.6237 82.9162 50.6237 83.1747V83.7847H51.5668V84.2869H50.6237L50.6204 88.2996H50.0353V84.2869H49.4419V83.7847H50.0353V83.0786C50.0353 82.7554 50.0651 82.5233 50.1248 82.3858C50.1844 82.2482 50.2855 82.1355 50.4281 82.051C50.5706 81.9664 50.743 81.925 50.9452 81.925C51.1325 81.9266 51.3579 81.9648 51.6215 82.0427Z" fill="white"/>
<path d="M52.21 83.7864H52.8033V84.446C52.9807 84.1858 53.1663 83.9919 53.3636 83.8626C53.5608 83.7333 53.7647 83.6703 53.9785 83.6703C54.1392 83.6703 54.31 83.7217 54.4923 83.8245L54.189 84.3134C54.068 84.2604 53.9652 84.2339 53.8823 84.2339C53.6884 84.2339 53.5028 84.3134 53.3221 84.4726C53.1431 84.6317 53.0055 84.8786 52.9111 85.2134C52.8398 85.4703 52.8033 85.9908 52.8033 86.7731V88.2996H52.21V83.7864Z" fill="white"/>
<path d="M57.1227 83.6686C57.8189 83.6686 58.394 83.9206 58.8514 84.4244C59.2675 84.8836 59.4747 85.4272 59.4747 86.0554C59.4747 86.6852 59.2542 87.2371 58.815 87.7095C58.3758 88.1819 57.8106 88.4173 57.1211 88.4173C56.4282 88.4173 55.8631 88.1819 55.4222 87.7095C54.9813 87.2371 54.7642 86.6869 54.7642 86.0554C54.7642 85.4305 54.9713 84.8885 55.3874 84.4294C55.8465 83.9222 56.4249 83.6686 57.1227 83.6686ZM57.1211 84.2371C56.6387 84.2371 56.2227 84.4161 55.8763 84.7725C55.5299 85.1289 55.3559 85.5615 55.3559 86.067C55.3559 86.3935 55.4354 86.6968 55.5929 86.9802C55.752 87.262 55.9642 87.4808 56.2343 87.6333C56.5028 87.7874 56.7995 87.8637 57.1211 87.8637C57.4426 87.8637 57.7393 87.7874 58.0078 87.6333C58.2763 87.4791 58.4901 87.262 58.6492 86.9802C58.8067 86.6985 58.8863 86.3935 58.8863 86.067C58.8863 85.5615 58.7122 85.1289 58.3642 84.7725C58.0161 84.4161 57.6017 84.2371 57.1211 84.2371Z" fill="white"/>
<path d="M60.5469 83.7864H61.127V84.567C61.3292 84.2787 61.5364 84.0698 61.7502 83.9372C62.0436 83.7599 62.3519 83.672 62.6767 83.672C62.8955 83.672 63.1027 83.7151 63.2999 83.8013C63.4972 83.8875 63.6579 84.0019 63.7822 84.1444C63.9065 84.2869 64.0143 84.4908 64.1071 84.756C64.301 84.4013 64.5414 84.1328 64.8314 83.9488C65.1215 83.7648 65.4331 83.672 65.7662 83.672C66.0778 83.672 66.353 83.7516 66.5916 83.909C66.8303 84.0665 67.0076 84.2869 67.1237 84.5687C67.2397 84.8505 67.2977 85.2748 67.2977 85.8383V88.303H66.7043V85.835C66.7043 85.351 66.6695 85.0179 66.6016 84.8372C66.532 84.6566 66.4143 84.5107 66.2485 84.3996C66.0811 84.2886 65.8822 84.2339 65.6502 84.2339C65.3684 84.2339 65.1115 84.3168 64.8795 84.4825C64.6458 84.6483 64.4767 84.8704 64.369 85.1455C64.2612 85.4223 64.2082 85.8847 64.2082 86.5311V88.2996H63.6281V85.9892C63.6281 85.4438 63.5933 85.0742 63.527 84.8787C63.459 84.6831 63.3414 84.5273 63.1723 84.4096C63.0032 84.2919 62.8027 84.2339 62.5706 84.2339C62.3021 84.2339 62.0519 84.3151 61.8182 84.4759C61.5845 84.6383 61.4121 84.8554 61.2994 85.1289C61.1867 85.4024 61.132 85.8218 61.132 86.3869V88.2996H60.5519V83.7864H60.5469Z" fill="white"/>
<path d="M70.8828 82.1968H71.4928V88.3012H70.8828V82.1968Z" fill="white"/>
<path d="M72.7954 83.7864H73.3755V84.5952C73.6076 84.2853 73.8645 84.0532 74.1479 83.9007C74.4297 83.7466 74.7363 83.6703 75.0694 83.6703C75.4076 83.6703 75.7059 83.7565 75.9678 83.9273C76.2297 84.0996 76.4219 84.33 76.5462 84.6201C76.6705 84.9101 76.7335 85.3626 76.7335 85.9775V88.3013H76.1534V86.1483C76.1534 85.6278 76.1319 85.2814 76.0888 85.1074C76.0208 84.809 75.8915 84.5836 75.7009 84.4328C75.5103 84.2819 75.2617 84.2074 74.9534 84.2074C74.602 84.2074 74.2871 84.3234 74.0087 84.5554C73.7302 84.7875 73.5479 85.0759 73.4584 85.419C73.4037 85.6427 73.3755 86.0521 73.3755 86.6471V88.3029H72.7954V83.7864Z" fill="white"/>
<path d="M82.4849 82.0427V88.2996H81.9131V87.5239C81.6695 87.8206 81.396 88.0427 81.0927 88.1919C80.7894 88.3411 80.4579 88.4157 80.0982 88.4157C79.4584 88.4157 78.9131 88.1836 78.4606 87.7212C78.0081 87.2587 77.7827 86.6936 77.7827 86.0306C77.7827 85.3808 78.0114 84.8239 78.4672 84.3632C78.923 83.9007 79.4733 83.6704 80.1148 83.6704C80.486 83.6704 80.8208 83.7499 81.1208 83.9074C81.4208 84.0648 81.6844 84.3018 81.9114 84.6168V82.0444H82.4849V82.0427ZM80.1628 84.2289C79.8396 84.2289 79.5413 84.3085 79.2678 84.4676C78.9943 84.6267 78.7772 84.8505 78.6148 85.1372C78.454 85.4239 78.3728 85.7289 78.3728 86.0488C78.3728 86.367 78.454 86.6703 78.6164 86.9604C78.7789 87.2505 78.9976 87.4759 79.2728 87.6383C79.5479 87.8007 79.8429 87.8803 80.1579 87.8803C80.4761 87.8803 80.7761 87.8007 81.0612 87.64C81.3463 87.4792 81.565 87.2621 81.7175 86.9886C81.87 86.7151 81.9479 86.4068 81.9479 86.0637C81.9479 85.5416 81.7755 85.104 81.4324 84.7543C81.0893 84.4046 80.6667 84.2289 80.1628 84.2289Z" fill="white"/>
<path d="M84.0016 81.9267C84.1342 81.9267 84.2469 81.9731 84.3397 82.0676C84.4325 82.1621 84.4806 82.2748 84.4806 82.4074C84.4806 82.5383 84.4342 82.6494 84.3397 82.7439C84.2452 82.8383 84.1325 82.8847 84.0016 82.8847C83.8723 82.8847 83.7596 82.8383 83.6668 82.7439C83.5723 82.6494 83.5259 82.5383 83.5259 82.4074C83.5259 82.2748 83.5723 82.1604 83.6668 82.0676C83.7612 81.9731 83.8723 81.9267 84.0016 81.9267ZM83.7132 83.7864H84.2933V88.3013H83.7132V83.7864Z" fill="white"/>
<path d="M90.0001 83.7864V88.3013H89.4266V87.5256C89.1829 87.8223 88.9094 88.0444 88.6078 88.1936C88.3045 88.3427 87.973 88.4173 87.6133 88.4173C86.9735 88.4173 86.4282 88.1853 85.9758 87.7229C85.5233 87.2588 85.2979 86.6952 85.2979 86.0322C85.2979 85.3825 85.5266 84.8256 85.9824 84.3648C86.4382 83.9024 86.9885 83.672 87.6299 83.672C88.0012 83.672 88.336 83.7516 88.636 83.909C88.936 84.0665 89.1995 84.3035 89.4266 84.6184V83.788H90.0001V83.7864ZM87.678 84.2289C87.3548 84.2289 87.0564 84.3085 86.7829 84.4676C86.5095 84.6267 86.2923 84.8505 86.1299 85.1372C85.9691 85.424 85.8879 85.7289 85.8879 86.0488C85.8879 86.367 85.9691 86.6704 86.1332 86.9604C86.2973 87.2505 86.5144 87.4759 86.7896 87.6383C87.0647 87.8008 87.3597 87.8803 87.6747 87.8803C87.9929 87.8803 88.2929 87.8008 88.578 87.64C88.863 87.4792 89.0818 87.2621 89.2343 86.9886C89.3868 86.7151 89.4647 86.4068 89.4647 86.0637C89.4647 85.5416 89.2923 85.1041 88.9492 84.7543C88.6045 84.4046 88.1818 84.2289 87.678 84.2289Z" fill="white"/>
<path d="M86.2776 44.9602C85.4894 47.0675 83.5362 47.8547 70.6779 54.386C73.112 55.0282 76.3577 57.3703 80.9613 54.1358C84.5348 51.6252 87.9734 46.9889 88.2859 42.0902C84.8462 45.5789 79.8862 43.2031 76.2862 44.6172C76.1443 44.6723 70.9413 46.8204 70.5054 53.6508C82.3182 46.2905 83.6598 47.2829 86.2776 44.9602Z" fill="#0A6B37"/>
<path d="M3.72361 44.9602C4.51182 47.0675 6.46496 47.8547 19.3233 54.386C16.8892 55.0282 13.6435 57.3703 9.03989 54.1358C5.46644 51.6252 2.02775 46.9889 1.71533 42.0902C5.15504 45.5789 10.115 43.2031 13.715 44.6172C13.8569 44.6723 19.0599 46.8204 19.4958 53.6508C7.68402 46.2905 6.34244 47.2829 3.72361 44.9602Z" fill="#0A6B37"/>
<path d="M69.9425 13.2881C68.7112 6.62008 62.135 1.5131 54.2326 1.5131C50.7643 1.5131 47.491 2.48508 44.8089 4.23403C42.2809 1.6101 38.5247 0 34.401 0C26.862 0 20.7299 5.41021 20.7299 12.0599C20.7299 12.4346 20.7493 12.8073 20.7881 13.1769C14.1885 14.0284 9.10498 19.0547 9.10498 25.1091C9.10498 31.7588 15.238 37.169 22.776 37.169H24.1656V53.4027C24.1656 56.2574 26.4801 58.572 29.3348 58.572H35.4954C35.0033 55.6183 34.5694 52.9576 34.4061 51.9866C33.9885 49.5107 33.7639 48.355 33.7639 48.355C33.7639 48.355 33.5015 46.9511 32.4692 46.509C31.0725 45.9097 28.2291 45.5626 27.4613 40.7476C26.6915 35.9336 28.1341 31.6741 30.4058 31.2269C32.7674 30.5214 35.865 33.6507 37.469 38.2564C39.072 42.8641 36.641 44.612 35.5291 45.7474C34.7256 46.5672 35.1871 48.0017 35.1871 48.0017C35.1871 48.0017 35.4485 48.9512 36.2959 51.5323C36.6124 52.4971 37.518 55.4273 38.4839 58.574H44.0166C44.3066 54.9403 44.6067 51.3567 44.6731 50.1887C44.8038 47.8506 44.7231 46.3691 44.6966 45.9801C44.6864 45.8556 44.6803 45.7535 44.6803 45.6861C44.6803 45.1072 42.2738 43.7891 42.043 41.9156C41.8123 40.0421 43.4469 30.2957 43.5082 29.8179C43.5694 29.3401 43.7859 29.2707 43.8859 29.2911C43.986 29.3115 43.9625 29.3932 43.9625 29.3932C43.9625 29.3932 43.6776 38.8159 43.6695 39.0926C43.6613 39.3703 43.6613 39.6398 43.9788 39.648C44.2943 39.6562 44.3331 39.2539 44.3331 39.2539C44.3331 39.2539 44.8416 30.21 44.91 29.6321C44.9804 29.0532 45.2489 29.5167 45.2489 29.5167L45.2796 39.115C45.2796 39.115 45.2193 39.7246 45.6339 39.748C46.1974 39.7399 46.1055 39.115 46.1055 39.115L46.1362 29.5167C46.1362 29.5167 46.4067 29.0542 46.4751 29.6321C46.5436 30.21 47.053 39.2539 47.053 39.2539C47.053 39.2539 47.0918 39.6551 47.4073 39.648C47.7238 39.6398 47.7238 39.3703 47.7156 39.0926C47.7095 38.8159 47.4226 29.3932 47.4226 29.3932C47.4226 29.3932 47.4002 29.3115 47.5002 29.2911C47.5993 29.2707 47.8157 29.3401 47.877 29.8179C47.9392 30.2957 49.5728 40.0421 49.3421 41.9156C49.1113 43.7891 46.7049 45.1072 46.7049 45.6861C46.7049 45.7617 46.6977 45.877 46.6855 46.021C46.6804 46.0904 46.5915 47.1972 46.6732 50.0028C46.7059 51.131 46.8876 54.8362 47.0765 58.574H51.8415C52.5827 55.9174 53.281 53.4293 53.6251 52.1306C53.3985 52.0887 53.1943 52.0438 53.038 51.9968C52.2304 51.7579 52.5398 51.5752 53.7252 44.4742C55.0106 36.7617 58.7107 32.2581 59.6122 31.9497C60.5137 31.6424 60.1605 33.083 60.1605 33.083L56.1868 51.2209C56.1398 51.4404 56.0888 51.6691 56.0357 51.909C55.8325 52.8371 55.3771 55.556 54.8901 58.5761H60.6658C63.5205 58.5761 65.8351 56.2615 65.8351 53.4068V37.1731H67.2247C74.7636 37.1731 80.8957 31.7629 80.8957 25.1132C80.8967 19.2803 76.1838 14.4031 69.9425 13.2881Z" fill="#F58120"/>
</svg>
