<?xml version="1.0" encoding="utf-8"?>
<!-- Generator: Adobe Illustrator 24.3.0, SVG Export Plug-In . SVG Version: 6.00 Build 0)  -->
<svg version="1.0" id="Layer_1" xmlns="http://www.w3.org/2000/svg" xmlns:xlink="http://www.w3.org/1999/xlink" x="0px" y="0px"
	 viewBox="0 0 734.2 305.1" style="enable-background:new 0 0 734.2 305.1;" xml:space="preserve">
<style type="text/css">
	.st0{fill:#CD163F;}
</style>
<path d="M638.5,42.4c-27,3.3-116.3-25.9-162.5-36.3c-33.2-7.5-91.9-9.9-125.9,3.6l-72.9,36.8l-17.9,9
	c-55.9,16.7-137.4-15.6-239.1,45c0.1,0,0.1,0,0.2-0.1c-0.1,0-0.1,0.1-0.2,0.1c71.2-26.9,123.4-28.2,201.6-28.2
	c12.9,0,31.5-2.2,43.6-6.6l40.9-21.6l41.4-21.9c1.8-1,3.7-1.9,5.7-2.7c0,0,0,0,0.1,0c1.9-0.8,3.8-1.6,5.7-2.3
	c0.2-0.1,0.4-0.1,0.6-0.2c1.8-0.6,3.7-1.3,5.6-1.8c0.2,0,0.3-0.1,0.5-0.1C418,0.3,495.8,20,559.2,42.8
	C496,24.3,397.2,9.3,366.8,29.1l-28.4,16.6l-47.5,27.7c0,0,0,0,0.1,0l-0.1,0.1C509.4,60.1,565.6,61.7,592.1,60
	c-3.8,2.3-13.9,4.7-36.6,5.8L221.8,90.4c0,0,0.2,0,0.5,0l-0.5,0c0,0,360,0.1,370.8,0C623.7,90.2,633.6,71.3,638.5,42.4"/>
<g>
	<path class="st0" d="M150.8,197.5c-4,2-8.1,3.5-12.2,4.8c-4.1,1.2-9.7,2.3-16.9,3.4l-14.3,2.1c-13.4,1.8-23,4.1-28.8,6.7
		c-9.8,4.5-14.7,11.5-14.7,20.9c0,8.4,3,14.5,9,18.2c6,3.7,13.4,5.6,22,5.6c13.7,0,26.3-3.1,37.9-9.3c11.5-6.2,17.5-17.6,18-34
		V197.5z M112.2,174.5c11.8-1.2,20.2-2.6,25.2-4.3c9.1-3,13.6-7.7,13.6-14c0-7.7-3.5-13-10.4-16c-6.9-2.9-17.1-4.4-30.5-4.4
		c-15,0-25.7,2.9-32,8.6c-4.5,4.3-7.4,10-8.9,17.3H7.8c1.3-16.5,7.3-30,17.9-40.6c16.8-16.6,45.7-24.9,86.7-24.9
		c26.7,0,50.3,4.1,71.1,12.3c20.7,8.2,31.1,23.6,31.1,46.3v86.4c0,6,0.2,13.2,0.4,21.8c0.4,6.5,1.7,10.8,3.8,13.1
		c2.1,2.3,5.2,4.2,9.4,5.7v7.3h-69.3c-1.9-3.8-3.3-7.4-4-10.7c-0.7-3.3-1.3-7.1-1.8-11.4c-8.8,7.4-18.9,13.7-30.4,18.8
		c-13.7,6.1-29.2,9.2-46.5,9.2c-22,0-40.3-4.9-54.6-14.6C7.2,270.6,0,256.8,0,238.9c0-23.2,11.5-39.9,34.6-50.3
		c12.7-5.6,31.3-9.7,55.9-12.1L112.2,174.5z"/>
	<path class="st0" d="M549,101.4c10.4,3.2,19.9,8.9,28.4,16.9c6.9,6.6,11.5,14.6,13.9,24.2c1.5,6.3,2.2,15.6,2.2,27.8L593,289.1
		h-65.2V169.1c0-7.1-1.5-13-4.5-17.6c-5.7-8.8-16.1-13.1-31.3-13.1c-17.6,0-29.7,5.6-36.4,16.9c-3.4,6-5.1,13.2-5.1,21.6v112.2
		h-64.1V176.9c0-11.2-1.5-19.3-4.5-24.4c-5.4-9.1-15.9-13.7-31.5-13.7c-18.2,0-30.4,4.6-36.6,13.7c-3.4,5.2-5.1,12.9-5.1,23.2v113.4
		H244V101h61.9v27.5c7.9-9.8,15.3-16.8,22.3-20.9c12.4-7.4,28.4-11.1,48-11.1c18.6,0,33.7,3.2,45.1,9.5c9.2,5.9,16.2,13.4,21,22.6
		c8.3-11.1,18.7-19.2,31.1-24.4c13.1-5.2,27.7-7.8,43.8-7.8C528,96.5,538.6,98.2,549,101.4"/>
	<path class="st0" d="M597.4,137h34v116.1c0,11.8,3.6,20.5,10.7,26.1c11,8.9,31.6,12.9,61.8,12.1l30.2-0.9v-36.8
		c-2.1,0.1-4.2,0.2-6.4,0.3c-2.2,0.1-4.2,0.1-6.2,0.1c-13,0-20.7-1-23.3-2.9c-2.5-1.9-3.8-6.7-3.8-14.4V137h39.6v-35.1h-39.6V43.5
		c-32-0.1-32.1-0.6-42.1,0c-3.3,5.3-2.6,58.9-55.1,58.3V137z"/>
</g>
</svg>
