<svg xmlns="http://www.w3.org/2000/svg" width="19.925" height="21.055" viewBox="0 0 19.925 21.055"><g transform="translate(-902.943 -18.828)"><g transform="translate(902.943 20)"><path d="M19.152,14.86c-1.761-1.541-3.412-3.742-3.412-9.136a5.724,5.724,0,1,0-11.447,0c0,5.5-1.651,7.595-3.412,9.136A2.312,2.312,0,0,0,0,16.621a.66.66,0,0,0,.66.66H6.824a3.192,3.192,0,0,0,6.274,0h6.164a.66.66,0,0,0,.66-.66A2.2,2.2,0,0,0,19.152,14.86ZM9.906,18.492a1.871,1.871,0,0,1-1.761-1.211h3.522A1.871,1.871,0,0,1,9.906,18.492ZM1.541,15.96h.11C4.4,13.539,5.5,10.457,5.5,5.724a4.4,4.4,0,1,1,8.806,0c0,4.733,1.211,7.815,3.852,10.127H1.541Zm0,0" fill="#33414e"/></g><g transform="translate(912.391 20.828)" fill="#1b6d85" stroke="#fff" stroke-width="2"><circle cx="3.314" cy="3.314" r="3.314" stroke="none"/><circle cx="3.314" cy="3.314" r="4.314" fill="none"/></g></g></svg>