<svg xmlns="http://www.w3.org/2000/svg" width="92" height="92" viewBox="0 0 92 92">
  <defs>
    <style>
      .cls-1 {
        fill: #33414e;
        fill-rule: evenodd;
      }
    </style>
  </defs>
  <path class="cls-1" d="M50.754,11.868v2.724A23.091,23.091,0,0,1,70.047,37.459v5.088a30.771,30.771,0,0,0,6.6,19.041L78.9,64.421a3.678,3.678,0,0,1,.437,3.869,3.616,3.616,0,0,1-3.256,2.072H15.786a3.617,3.617,0,0,1-3.26-2.072,3.69,3.69,0,0,1,.436-3.869l2.247-2.833a30.712,30.712,0,0,0,6.606-19.041V37.459A23.091,23.091,0,0,1,41.108,14.592V11.868a4.824,4.824,0,1,1,9.647,0h0Zm-6.029,9.749A15.767,15.767,0,0,0,29.05,37.459v5.088a38.108,38.108,0,0,1-5.982,20.5H68.8a38.124,38.124,0,0,1-5.984-20.5V37.459A15.767,15.767,0,0,0,47.137,21.617H44.725ZM55.578,75.236a10.051,10.051,0,0,1-2.819,6.9,9.838,9.838,0,0,1-6.828,2.849A9.6,9.6,0,0,1,39.1,82.136a10.05,10.05,0,0,1-2.819-6.9H55.578Z"/>
</svg>
