<?xml version="1.0" encoding="utf-8"?>
<!-- Generator: Adobe Illustrator 24.3.0, SVG Export Plug-In . SVG Version: 6.00 Build 0)  -->
<svg version="1.1" id="Layer_1" xmlns="http://www.w3.org/2000/svg" xmlns:xlink="http://www.w3.org/1999/xlink" x="0px" y="0px"
	 viewBox="0 0 15 15" style="enable-background:new 0 0 15 15;" xml:space="preserve">
<style type="text/css">
	.st0{fill:#BA0C2F;}
</style>
<path class="st0" d="M13,3c0,1-0.8,1.8-1.8,1.8S9.3,4,9.3,3c0-1,0.8-1.8,1.8-1.8S13,2,13,3z"/>
<path class="st0" d="M11.1,5.2c-1.2,0-2.3-1-2.3-2.3c0-1.2,1-2.3,2.3-2.3s2.3,1,2.3,2.3C13.4,4.2,12.4,5.2,11.1,5.2z M11.1,1.6
	c-0.8,0-1.4,0.6-1.4,1.4c0,0.8,0.6,1.4,1.4,1.4c0.8,0,1.4-0.6,1.4-1.4C12.5,2.2,11.9,1.6,11.1,1.6z"/>
<path class="st0" d="M13,12c0,1-0.8,1.8-1.8,1.8S9.3,13,9.3,12c0-1,0.8-1.8,1.8-1.8S13,11,13,12z"/>
<path class="st0" d="M11.1,14.3c-1.2,0-2.3-1-2.3-2.3c0-1.2,1-2.3,2.3-2.3s2.3,1,2.3,2.3C13.4,13.3,12.4,14.3,11.1,14.3z M11.1,10.6
	c-0.8,0-1.4,0.6-1.4,1.4c0,0.8,0.6,1.4,1.4,1.4c0.8,0,1.4-0.6,1.4-1.4C12.5,11.2,11.9,10.6,11.1,10.6z"/>
<path class="st0" d="M5,7.5c0,1-0.8,1.8-1.8,1.8c-1,0-1.8-0.8-1.8-1.8s0.8-1.8,1.8-1.8C4.2,5.7,5,6.5,5,7.5z"/>
<path class="st0" d="M3.2,9.8C2,9.8,1,8.7,1,7.5s1-2.3,2.3-2.3c1.2,0,2.3,1,2.3,2.3S4.5,9.8,3.2,9.8z M3.2,6.1
	c-0.8,0-1.4,0.6-1.4,1.4s0.6,1.4,1.4,1.4c0.8,0,1.4-0.6,1.4-1.4S4,6.1,3.2,6.1z"/>
<path class="st0" d="M4.5,7.2c-0.2,0-0.4-0.1-0.5-0.3C3.9,6.7,4,6.3,4.3,6.2l5.2-3c0.3-0.2,0.6-0.1,0.8,0.2c0.2,0.3,0.1,0.6-0.2,0.8
	l-5.2,3C4.7,7.2,4.6,7.2,4.5,7.2z"/>
<path class="st0" d="M9.8,11.9c-0.1,0-0.2,0-0.3-0.1l-5.2-3C4,8.7,3.9,8.3,4.1,8.1c0.2-0.3,0.5-0.4,0.8-0.2l5.2,3
	c0.3,0.2,0.4,0.5,0.2,0.8C10.2,11.8,10,11.9,9.8,11.9z"/>
</svg>
