<?xml version="1.0" encoding="utf-8"?>
<!-- Generator: Adobe Illustrator 24.3.0, SVG Export Plug-In . SVG Version: 6.00 Build 0)  -->
<svg version="1.1" id="Layer_1" xmlns="http://www.w3.org/2000/svg" xmlns:xlink="http://www.w3.org/1999/xlink" x="0px" y="0px"
	 viewBox="0 0 75 77" style="enable-background:new 0 0 75 77;" xml:space="preserve">
<style type="text/css">
	.st0{fill:#BA0C2F;}
</style>
<g>
	<path class="st0" d="M38.2,4C19.6,4,4.5,19.1,4.5,37.7s15.1,33.7,33.7,33.7s33.7-15.1,33.7-33.7S56.8,4,38.2,4z M10.7,37.7
		c0-15.2,12.4-27.5,27.5-27.5c6.8,0,13.1,2.5,17.9,6.7L17.3,55.6C13.2,50.8,10.7,44.5,10.7,37.7z M38.2,65.2c-6.1,0-11.8-2-16.4-5.4
		l38.5-38.5c3.4,4.6,5.4,10.2,5.4,16.4C65.7,52.9,53.4,65.2,38.2,65.2z"/>
</g>
</svg>
