<?xml version="1.0" encoding="utf-8"?>
<!-- Generator: Adobe Illustrator 24.3.0, SVG Export Plug-In . SVG Version: 6.00 Build 0)  -->
<svg version="1.1" id="Capa_1" xmlns="http://www.w3.org/2000/svg" xmlns:xlink="http://www.w3.org/1999/xlink" x="0px" y="0px"
	 viewBox="0 0 69.9 72" style="enable-background:new 0 0 69.9 72;" xml:space="preserve">
<style type="text/css">
	.st0{fill:#33414E;stroke:#33414E;stroke-width:3;stroke-miterlimit:10;}
</style>
<g>
	<path class="st0" d="M34.9,2.8C16.8,2.8,2.1,17.5,2.1,35.6s14.7,32.8,32.8,32.8s32.8-14.7,32.8-32.8S52.9,2.8,34.9,2.8z M8.1,35.6
		c0-14.8,12-26.8,26.8-26.8c6.6,0,12.7,2.4,17.4,6.5L14.6,53C10.6,48.3,8.1,42.2,8.1,35.6z M34.9,62.3c-5.9,0-11.4-2-15.9-5.2
		l37.4-37.4c3.3,4.4,5.2,9.9,5.2,15.9C61.6,50.3,49.6,62.3,34.9,62.3z"/>
</g>
</svg>
