<?xml version="1.0" encoding="utf-8"?>
<!-- Generator: Adobe Illustrator 23.0.2, SVG Export Plug-In . SVG Version: 6.00 Build 0)  -->
<svg version="1.1" id="Layer_1" xmlns="http://www.w3.org/2000/svg" xmlns:xlink="http://www.w3.org/1999/xlink" x="0px" y="0px"
	 viewBox="0 0 30 30" style="enable-background:new 0 0 30 30;" xml:space="preserve">
<g>
	<g>
		<path d="M1.89,21.66l0.89,0.89c0.28,0.28,0.65,0.43,1.05,0.43c0.4,0,0.77-0.15,1.05-0.43l10.12-10.12l10.13,10.13
			C25.4,22.84,25.78,23,26.17,23c0.4,0,0.77-0.15,1.05-0.43l0.89-0.89c0.58-0.58,0.58-1.52,0-2.1L16.05,7.48
			C15.77,7.2,15.4,7,14.99,7h0c-0.4,0-0.77,0.2-1.05,0.48L1.89,19.55c-0.28,0.28-0.43,0.66-0.43,1.06
			C1.46,21.01,1.61,21.38,1.89,21.66z"/>
	</g>
</g>
</svg>
