<svg xmlns="http://www.w3.org/2000/svg" width="36" height="36" viewBox="0 0 36 36"><g transform="translate(15 15)"><g transform="translate(-15 -15)"><path d="M24.931,20.7a12.046,12.046,0,0,0-4.569-2.908,7.062,7.062,0,1,0-7.892,0A12.185,12.185,0,0,0,4.3,29.281H6.1a10.246,10.246,0,0,1,20.492,0h1.938a12.046,12.046,0,0,0-3.6-8.585ZM11.223,11.973A5.123,5.123,0,1,1,16.346,17.1a5.123,5.123,0,0,1-5.123-5.123Z" transform="translate(1.654 1.873)" fill="#a7a9ac"/><path d="M18,36A18,18,0,1,1,36,18,18,18,0,0,1,18,36ZM18,1.523A16.477,16.477,0,1,0,34.477,18,16.477,16.477,0,0,0,18,1.523Z" fill="#a7a9ac"/></g></g></svg>