<?xml version="1.0" encoding="UTF-8"?><svg xmlns="http://www.w3.org/2000/svg" viewBox="0 0 399.95 388.51"><defs><style>.d{fill:#33414e;}</style></defs><g id="a"/><g id="b"><g id="c"><path class="d" d="M156.93,54.26c0-4.64,1.84-9.09,5.12-12.38s7.73-5.12,12.38-5.12h208.02c6.25,0,12.03,3.34,15.16,8.75,3.12,5.41,3.12,12.09,0,17.5-3.13,5.41-8.91,8.75-15.16,8.75H174.43c-4.64,0-9.09-1.84-12.38-5.12s-5.12-7.73-5.12-12.38ZM88.99,6.69L45.12,62.36l-13.58-17.94c-3.77-5-9.93-7.61-16.15-6.84-6.21,.77-11.56,4.79-14,10.56-2.45,5.77-1.62,12.4,2.15,17.41l27.34,35.96c3.26,4.35,8.36,6.93,13.79,7h.18c5.36,0,10.42-2.46,13.73-6.67L116.46,28.34c3.88-4.91,4.84-11.51,2.52-17.32-2.31-5.81-7.55-9.94-13.73-10.84-6.19-.9-12.39,1.57-16.26,6.48v.04ZM382.45,176.76H174.43c-6.25,0-12.03,3.34-15.16,8.75-3.12,5.41-3.12,12.09,0,17.5,3.13,5.41,8.91,8.75,15.16,8.75h208.02c6.25,0,12.03-3.34,15.16-8.75,3.12-5.41,3.12-12.09,0-17.5-3.13-5.41-8.91-8.75-15.16-8.75Zm0,140H174.43c-6.25,0-12.03,3.34-15.16,8.75-3.12,5.41-3.12,12.09,0,17.5,3.13,5.41,8.91,8.75,15.16,8.75h208.02c6.25,0,12.03-3.34,15.16-8.75,3.12-5.41,3.12-12.09,0-17.5-3.13-5.41-8.91-8.75-15.16-8.75ZM114.38,157.51v73.5c0,4.64-1.84,9.09-5.12,12.38s-7.73,5.12-12.38,5.12H23.38c-4.64,0-9.09-1.84-12.38-5.12-3.28-3.28-5.12-7.73-5.12-12.38v-73.5c0-4.64,1.84-9.09,5.12-12.38,3.29-3.28,7.73-5.12,12.38-5.12H96.88c4.64,0,9.09,1.84,12.38,5.12,3.28,3.28,5.12,7.73,5.12,12.38Zm-35,17.5H40.88v38.5h38.5v-38.5Zm35,122.5v73.5c0,4.64-1.84,9.09-5.12,12.38s-7.73,5.12-12.38,5.12H23.38c-4.64,0-9.09-1.84-12.38-5.12-3.28-3.28-5.12-7.73-5.12-12.38v-73.5c0-4.64,1.84-9.09,5.12-12.38,3.29-3.28,7.73-5.12,12.38-5.12H96.88c4.64,0,9.09,1.84,12.38,5.12,3.28,3.28,5.12,7.73,5.12,12.38Zm-35,17.5H40.88v38.5h38.5v-38.5Z"/></g></g></svg>