<svg xmlns="http://www.w3.org/2000/svg" width="22.88" height="17.124" viewBox="0 0 22.88 17.124">
  <defs>
    <style>
      .cls-1 {
        fill: #33414e;
        fill-rule: evenodd;
      }
    </style>
  </defs>
  <path class="cls-1" d="M1619.68,285.605a1.14,1.14,0,1,1-1.14-1.135,1.138,1.138,0,0,1,1.14,1.135m4.73-11.156v2.2h-3.29a4.186,4.186,0,0,0-3.73,2.658l-0.75,2.389a2.994,2.994,0,0,0-3.04,2.952v1.843a3.059,3.059,0,0,0,3.04,3.028h0.76v2.034h2.28v-2.034h4.73v2.034h1.18v-17.1h-1.18Zm-5.52,5.33a2.785,2.785,0,0,1,2.31-1.618h3.21v3.533h-6ZM1616.64,288a1.582,1.582,0,0,1-1.52-1.515v-1.766a1.582,1.582,0,0,1,1.52-1.514l7.77,0V288h-7.77Zm14-10.809c-3.22,0-4.82,3.155-4.82,5.806s1.6,5.806,4.82,5.806a5.806,5.806,0,1,0,0-11.612h0Zm0,10.2a4.391,4.391,0,1,1,4.4-4.391,4.4,4.4,0,0,1-4.4,4.391h0Zm2.54-5.1h-1.83v-1.829a0.71,0.71,0,0,0-1.42,0v1.829h-1.84a0.708,0.708,0,1,0,0,1.415h1.84v1.828a0.71,0.71,0,0,0,1.42,0v-1.828h1.83A0.708,0.708,0,1,0,1633.18,282.293Z" transform="translate(-1613.59 -274.438)"/>
</svg>
