<?xml version="1.0" encoding="utf-8"?>
<!-- Generator: Adobe Illustrator 24.3.0, SVG Export Plug-In . SVG Version: 6.00 Build 0)  -->
<svg version="1.1" id="Layer_1" xmlns="http://www.w3.org/2000/svg" xmlns:xlink="http://www.w3.org/1999/xlink" x="0px" y="0px"
	 viewBox="0 0 25 25" style="enable-background:new 0 0 25 25;" xml:space="preserve">
<style type="text/css">
	.st0{fill:#BA0C2F;}
</style>
<path class="st0" d="M12.5,1.6c-6,0-10.9,4.9-10.9,10.9s4.9,10.9,10.9,10.9s10.9-4.9,10.9-10.9S18.5,1.6,12.5,1.6z M17.3,13.4h-3.9
	v3.9c0,0.5-0.4,0.9-0.9,0.9s-0.9-0.4-0.9-0.9v-3.9H7.7c-0.5,0-0.9-0.4-0.9-0.9s0.4-0.9,0.9-0.9h3.9V7.7c0-0.5,0.4-0.9,0.9-0.9
	s0.9,0.4,0.9,0.9v3.9h3.9c0.5,0,0.9,0.4,0.9,0.9S17.8,13.4,17.3,13.4z"/>
</svg>
