<svg xmlns="http://www.w3.org/2000/svg" width="18" height="18" viewBox="0 0 18 18">
  <defs>
    <style>
      .cls-1 {
        fill: #33414e;
        fill-rule: evenodd;
      }
    </style>
  </defs>
  <path class="cls-1" d="M6.5,8.351A3.51,3.51,0,0,0,9.02,7.275a3.757,3.757,0,0,0,0-5.2,3.488,3.488,0,0,0-5.041,0,3.754,3.754,0,0,0,0,5.2A3.515,3.515,0,0,0,6.5,8.351ZM6.5,2.3a2.271,2.271,0,0,1,1.631.7,2.431,2.431,0,0,1,0,3.364,2.257,2.257,0,0,1-3.262,0,2.429,2.429,0,0,1,0-3.363A2.274,2.274,0,0,1,6.5,2.3Zm0,7.351a6.409,6.409,0,0,0-4.594,1.965A6.818,6.818,0,0,0,0,16.351a0.658,0.658,0,0,0,.184.459A0.619,0.619,0,0,0,.629,17H12.371a0.619,0.619,0,0,0,.445-0.19A0.659,0.659,0,0,0,13,16.351a6.817,6.817,0,0,0-1.906-4.737A6.41,6.41,0,0,0,6.5,9.649h0ZM1.3,15.7a5.46,5.46,0,0,1,1.727-3.4,5.123,5.123,0,0,1,6.954,0A5.461,5.461,0,0,1,11.7,15.7H1.3Z"/>
  <path class="cls-1" d="M18.038,8.015l-3.46-3.038v1.8H10.453V9.2h4.111v1.839Z"/>
</svg>
