<svg version="1.2" xmlns="http://www.w3.org/2000/svg" viewBox="0 0 18 18" width="18" height="18">
	<title>send-proposal-svg</title>
	<style>
		.s0 { fill: #33414e } 
	</style>
	<path id="Layer" fill-rule="evenodd" class="s0" d="m13.5 14.8c-2.5-0.1-4.5-2.1-4.5-4.6 0-2.4 2-4.5 4.5-4.5 2.5 0 4.5 2.1 4.5 4.5 0 2.5-2 4.5-4.5 4.5zm3.7-4.4c0-2.1-1.6-3.8-3.7-3.8-2.1 0-3.7 1.7-3.7 3.8 0 2 1.6 3.7 3.7 3.7 2.1 0 3.7-1.7 3.7-3.7zm-3.2-0.1l1.2 1.2c0.2 0.2 0.2 0.4 0 0.6-0.1 0.1-0.4 0.1-0.5 0l-1.2-1.2-1.2 1.2c-0.1 0.1-0.4 0.1-0.5 0-0.2-0.2-0.2-0.4 0-0.6l1.2-1.2-1.2-1.1c-0.2-0.2-0.2-0.4 0-0.6 0.1-0.1 0.4-0.1 0.5 0l1.2 1.2 1.2-1.2c0.1-0.1 0.4-0.1 0.5 0 0.2 0.2 0.2 0.4 0 0.6z"/>
	<path id="Layer" fill-rule="evenodd" class="s0" d="m11.9 18h-11.2q-0.1 0-0.2 0 0 0-0.1-0.1 0 0-0.1 0-0.1-0.1-0.1-0.1 0-0.1-0.1-0.1 0-0.1 0-0.1-0.1-0.1-0.1-0.2 0 0 0-0.1v-16.6q0-0.1 0-0.1 0-0.1 0-0.2 0.1 0 0.1-0.1 0 0 0.1-0.1 0 0 0.1-0.1 0 0 0.1 0 0-0.1 0.1-0.1 0 0 0.1 0 0 0 0 0 0 0 0 0 0 0 0.1 0 0 0 0 0h8.6q0.1 0 0.1 0 0.1 0 0.2 0.1 0 0 0.1 0 0 0 0.1 0.1l3.9 4q0.1 0 0.1 0.1 0.1 0 0.1 0.1 0 0.1 0 0.1 0.1 0.1 0.1 0.2l-1.9 0.1m-2.9 0.7q0 0-0.1 0-0.1 0-0.1 0-0.1 0-0.2-0.1 0 0-0.1-0.1 0 0 0-0.1-0.1 0-0.1-0.1 0-0.1 0-0.1-0.1-0.1-0.1-0.2v-3.4h-7.2v15.2l10.6-0.2 0.1-10.4v-0.5zm0.7-1.4h1.9l-1.9-1.9zm2.1 10.8h1v3h-1z"/>
	<path id="Layer" fill-rule="evenodd" class="s0" d="m3 3.8h3.6q0.2 0 0.3 0 0.1 0.1 0.2 0.2 0.1 0.1 0.2 0.2 0 0.1 0 0.3v0.2q0 0.1 0 0.3-0.1 0.1-0.2 0.2-0.1 0.1-0.2 0.1-0.1 0.1-0.3 0.1h-3.6q-0.1 0-0.3-0.1-0.1 0-0.2-0.1-0.1-0.1-0.1-0.2-0.1-0.2-0.1-0.3v-0.2q0-0.2 0.1-0.3 0-0.1 0.1-0.2 0.1-0.1 0.2-0.2 0.2 0 0.3 0zm0 3.1h3.6q0.2 0 0.3 0.1 0.1 0 0.2 0.1 0.1 0.1 0.2 0.2 0 0.2 0 0.3v0.2q0 0.1 0 0.3-0.1 0.1-0.2 0.2-0.1 0.1-0.2 0.1-0.1 0.1-0.3 0.1h-3.6q-0.1 0-0.3-0.1-0.1 0-0.2-0.1-0.1-0.1-0.1-0.2-0.1-0.2-0.1-0.3v-0.2q0-0.1 0.1-0.3 0-0.1 0.1-0.2 0.1-0.1 0.2-0.1 0.2-0.1 0.3-0.1zm0 3.1h3.6q0.2 0 0.3 0.1 0.1 0 0.2 0.1 0.1 0.1 0.2 0.3 0 0.1 0 0.2v0.2q0 0.2 0 0.3-0.1 0.1-0.2 0.2-0.1 0.1-0.2 0.2-0.1 0-0.3 0h-3.6q-0.1 0-0.3 0-0.1-0.1-0.2-0.2-0.1-0.1-0.1-0.2-0.1-0.1-0.1-0.3v-0.2q0-0.1 0.1-0.2 0-0.2 0.1-0.3 0.1-0.1 0.2-0.1 0.2-0.1 0.3-0.1zm0 3.1h3.6q0.2 0 0.3 0.1 0.1 0.1 0.2 0.1 0.1 0.1 0.2 0.3 0 0.1 0 0.2v0.2q0 0.2 0 0.3-0.1 0.1-0.2 0.2-0.1 0.1-0.2 0.2-0.1 0-0.3 0h-3.6q-0.1 0-0.3 0-0.1-0.1-0.2-0.2-0.1-0.1-0.1-0.2-0.1-0.1-0.1-0.3v-0.2q0-0.1 0.1-0.2 0-0.2 0.1-0.3 0.1 0 0.2-0.1 0.2-0.1 0.3-0.1z"/>
</svg>