<svg xmlns="http://www.w3.org/2000/svg" width="22" height="22" viewBox="0 0 22 22">
  <defs>
    <style>
      .cls-1 {
        fill: #33414e;
        fill-rule: evenodd;
      }
    </style>
  </defs>
  <path class="cls-1" d="M7.849,3C11.082,3,13.7,5.309,13.7,8.156s-2.619,5.156-5.852,5.156a6.655,6.655,0,0,1-1.522-.182A6.687,6.687,0,0,1,2.7,14.25a0.7,0.7,0,0,1-.645-0.442,0.759,0.759,0,0,1,.133-0.791,8.175,8.175,0,0,0,1.1-1.641A4.765,4.765,0,0,1,2,8.156C2,5.309,4.617,3,7.849,3ZM6.628,11.733a4.238,4.238,0,0,0,1.221.173c2.481,0,4.5-1.682,4.5-3.75s-2.02-3.75-4.5-3.75-4.5,1.682-4.5,3.75a3.346,3.346,0,0,0,.916,2.253l0.662,0.729-0.444.888c-0.1.176-.213,0.4-0.331,0.6a5.111,5.111,0,0,0,1.467-.715l0.47-.278Zm7.793-4.978C17.527,6.879,20,9.138,20,11.906a4.771,4.771,0,0,1-1.286,3.22,8,8,0,0,0,1.1,1.641,0.708,0.708,0,0,1,.107.791A0.644,0.644,0,0,1,19.3,18a6.688,6.688,0,0,1-3.626-1.119,6.655,6.655,0,0,1-1.522.182A5.97,5.97,0,0,1,8.9,14.177a7.047,7.047,0,0,0,1.4-.34,4.742,4.742,0,0,0,3.857,1.819,4.238,4.238,0,0,0,1.221-.173l0.54-.1,0.47,0.278a5.086,5.086,0,0,0,1.468.715c-0.118-.193-0.231-0.422-0.332-0.6l-0.445-.888,0.661-.729a3.335,3.335,0,0,0,.917-2.253c0-1.942-1.781-3.542-4.077-3.732L14.6,8.156a5.482,5.482,0,0,0-.18-1.4h0Z"/>
</svg>
