<svg xmlns="http://www.w3.org/2000/svg" width="19" height="18" viewBox="0 0 19 18">
  <defs>
    <style>
      .cls-1 {
        fill: #33414e;
        fill-rule: evenodd;
      }
    </style>
  </defs>
  <path class="cls-1" d="M18.572,3.7a1.919,1.919,0,0,0-1.5-.745H4.9L4.518,1.47A1.924,1.924,0,0,0,2.659,0H0.62a0.624,0.624,0,0,0,0,1.248H2.659a0.662,0.662,0,0,1,.64.5l2.439,9.785A1.924,1.924,0,0,0,7.6,13.007h7.976a1.907,1.907,0,0,0,1.859-1.47l1.5-6.2a1.856,1.856,0,0,0-.36-1.631h0Zm-0.86,1.349-1.5,6.2a0.662,0.662,0,0,1-.64.5H7.6a0.662,0.662,0,0,1-.64-0.5L5.218,4.228H17.072a0.661,0.661,0,0,1,.52.262,0.635,0.635,0,0,1,.12.564h0Zm-9.7,8.758A2.094,2.094,0,1,0,10.1,15.906a2.1,2.1,0,0,0-2.079-2.094h0Zm0,2.919a0.826,0.826,0,1,1,.82-0.826A0.84,0.84,0,0,1,8.016,16.732Zm6.877-2.919a2.094,2.094,0,1,0,2.079,2.094,2.1,2.1,0,0,0-2.079-2.094h0Zm0,2.919a0.826,0.826,0,1,1,.82-0.826A0.84,0.84,0,0,1,14.893,16.732Z"/>
  <path class="cls-1" d="M15.25,8.054L11.975,5.138V7.224h-3.9V9.193h3.891v1.766Z"/>
</svg>
