<svg xmlns="http://www.w3.org/2000/svg" width="22" height="22" viewBox="0 0 22 22">
  <defs>
    <style>
      .cls-1 {
        fill: #33414e;
        fill-rule: evenodd;
      }
    </style>
  </defs>
  <path class="cls-1" d="M19.67,4.483L17.516,2.33A1.122,1.122,0,0,0,16.72,2H10.969a2.25,2.25,0,0,0-2.25,2.25v9A2.3,2.3,0,0,0,11,15.5h6.75A2.257,2.257,0,0,0,20,13.25V5.278A1.126,1.126,0,0,0,19.67,4.483ZM18.313,13.25a0.563,0.563,0,0,1-.562.563H10.969a0.563,0.563,0,0,1-.562-0.562v-9a0.563,0.563,0,0,1,.563-0.562h4.5L15.5,5.375A1.125,1.125,0,0,0,16.625,6.5h1.656v6.75h0.032Zm-6.75,4.5a0.563,0.563,0,0,1-.562.563H4.219a0.562,0.562,0,0,1-.562-0.562l0.031-9A0.563,0.563,0,0,1,4.25,8.191H7.625V6.5H4.25A2.25,2.25,0,0,0,2,8.75v9A2.251,2.251,0,0,0,4.25,20H11a2.257,2.257,0,0,0,2.25-2.25V16.625H11.594Z"/>
</svg>
