<svg xmlns="http://www.w3.org/2000/svg" width="22" height="22" viewBox="0 0 22 22">
  <defs>
    <style>
      .cls-1 {
        fill: #33414e;
        fill-rule: evenodd;
      }
    </style>
  </defs>
  <path class="cls-1" d="M8.714,16.063a0.572,0.572,0,0,1-1.143,0V8.75a0.572,0.572,0,0,1,1.143,0v7.313Zm2.857,0a0.571,0.571,0,0,1-1.143,0V8.75a0.571,0.571,0,0,1,1.143,0v7.313Zm2.857,0a0.572,0.572,0,0,1-1.143,0V8.75a0.572,0.572,0,0,1,1.143,0v7.313ZM14.339,2.877L15.65,4.813h2.493a0.844,0.844,0,1,1,0,1.688H17.857V17.188A2.834,2.834,0,0,1,15,20H7a2.835,2.835,0,0,1-2.857-2.812V6.5H3.857a0.844,0.844,0,1,1,0-1.687H6.351l1.31-1.936A2.011,2.011,0,0,1,9.325,2h3.35a2.011,2.011,0,0,1,1.664.877h0ZM8.411,4.813h5.179l-0.679-1a0.288,0.288,0,0,0-.236-0.125H9.325a0.25,0.25,0,0,0-.236.125ZM5.857,17.188A1.133,1.133,0,0,0,7,18.313h8a1.133,1.133,0,0,0,1.143-1.125V6.5H5.857V17.188Z"/>
</svg>
