<svg id="Capa_1" data-name="Capa 1" xmlns="http://www.w3.org/2000/svg" viewBox="0 0 19.45 18.72"><defs><style>.cls-1{fill:#33414e;}.cls-2{fill:#fff;}</style></defs><path class="cls-1" d="M15.78,5.25,12.51,1.78a.56.56,0,0,0-.39-.17H3.39A1.69,1.69,0,0,0,1.75,3.35v15a1.68,1.68,0,0,0,1.64,1.73H14.3a1.68,1.68,0,0,0,1.64-1.73V5.66A.62.62,0,0,0,15.78,5.25Zm-.93,13.13a.57.57,0,0,1-.55.58H3.39a.57.57,0,0,1-.55-.58v-15a.57.57,0,0,1,.55-.58h8.18V5.08a1.13,1.13,0,0,0,1.1,1.16h2.18Z" transform="translate(-1.75 -1.61)"/><rect class="cls-1" x="10.91" y="13.88" width="1.09" height="1.16"/><rect class="cls-1" x="2.18" y="8.09" width="9.82" height="1.16"/><rect class="cls-1" x="2.18" y="10.99" width="9.82" height="1.16"/><rect class="cls-1" x="2.18" y="13.88" width="7.64" height="1.16"/><ellipse class="cls-2" cx="14.35" cy="13.21" rx="3.74" ry="3.89"/><path class="cls-1" d="M16.15,10.19a5.07,5.07,0,1,0,5.05,5.05A5.09,5.09,0,0,0,16.15,10.19Zm2.67,5.65H16.74V18a.6.6,0,0,1-1.19,0V15.84H13.43a.6.6,0,0,1-.59-.6.59.59,0,0,1,.59-.59h2.12V12.57a.6.6,0,1,1,1.19,0v2.08h2.08a.58.58,0,0,1,.59.59A.59.59,0,0,1,18.82,15.84Z" transform="translate(-1.75 -1.61)"/></svg>