<svg version="1.2" baseProfile="tiny-ps" xmlns="http://www.w3.org/2000/svg" viewBox="0 0 20 20" width="20" height="20">
	<title>ico-hold-svg</title>
	<style>
		tspan { white-space:pre }
		.shp0 { fill: #808080 } 
	</style>
	<path id="Layer" fill-rule="evenodd" class="shp0" d="M20 10C20 15.52 15.52 20 10 20C4.48 20 0 15.52 0 10C0 4.48 4.48 0 10 0C15.52 0 20 4.48 20 10ZM18.06 10C18.06 5.54 14.46 1.94 10 1.94C5.54 1.94 1.94 5.54 1.94 10C1.94 14.46 5.54 18.06 10 18.06C14.46 18.06 18.06 14.46 18.06 10ZM13.87 6.77L13.87 13.23C13.87 13.58 13.58 13.87 13.23 13.87L11.29 13.87C10.94 13.87 10.65 13.58 10.65 13.23L10.65 6.77C10.65 6.42 10.94 6.13 11.29 6.13L13.23 6.13C13.58 6.13 13.87 6.42 13.87 6.77ZM9.35 6.77L9.35 13.23C9.35 13.58 9.06 13.87 8.71 13.87L6.77 13.87C6.42 13.87 6.13 13.58 6.13 13.23L6.13 6.77C6.13 6.42 6.42 6.13 6.77 6.13L8.71 6.13C9.06 6.13 9.35 6.42 9.35 6.77Z" />
</svg>