<svg xmlns="http://www.w3.org/2000/svg" width="21" height="17" viewBox="0 0 21 17">
  <defs>
    <style>
      .cls-1, .cls-2 {
        fill: #fff;
        stroke-linejoin: round;
        stroke-width: 1px;
      }

      .cls-1 {
        fill-opacity: 0;
        stroke: #03182b;
      }

      .cls-1, .cls-2, .cls-3 {
        fill-rule: evenodd;
      }

      .cls-2 {
        stroke: #33414e;
      }

      .cls-3, .cls-4 {
        fill: #33414e;
      }
    </style>
  </defs>
  <g>
    <path class="cls-1" d="M2.721,3.587H9.546a1.5,1.5,0,0,1,1.5,1.5V14.1a1.5,1.5,0,0,1-1.5,1.5H2.721a1.5,1.5,0,0,1-1.5-1.5V5.087A1.5,1.5,0,0,1,2.721,3.587Z"/>
    <path id="Rectangle_6_copy" data-name="Rectangle 6 copy" class="cls-2" d="M9.954,1.4H19.78V13.413H9.954V1.4Z"/>
  </g>
  <g id="plus">
    <path class="cls-3" d="M3.188,8.738H9.813a0.5,0.5,0,0,1,.5.5V9.763a0.5,0.5,0,0,1-.5.5H3.188a0.5,0.5,0,0,1-.5-0.5V9.238A0.5,0.5,0,0,1,3.188,8.738Z"/>
    <path class="cls-3" d="M6.238,5.688H6.763a0.5,0.5,0,0,1,.5.5v6.625a0.5,0.5,0,0,1-.5.5H6.238a0.5,0.5,0,0,1-.5-0.5V6.188A0.5,0.5,0,0,1,6.238,5.688Z"/>
  </g>
  <g id="arrow">
    <path id="Triangle_4" data-name="Triangle 4" class="cls-3" d="M19.02,8l-5.031,3.359V4.64Z"/>
    <rect class="cls-4" x="10" y="7" width="5" height="2" rx="1" ry="1"/>
  </g>
</svg>
