<svg xmlns="http://www.w3.org/2000/svg" width="16" height="18" viewBox="0 0 16 18">
  <defs>
    <style>
      .cls-1 {
        fill: #33414e;
        fill-rule: evenodd;
      }
    </style>
  </defs>
  <path class="cls-1" d="M0.021,17.039H13.979V18H0.021V17.039ZM3,14.965l2.526-.522L12.1,7.649l0.642,0.656-6.66,6.872A47.425,47.425,0,0,1,.572,16.411a0.458,0.458,0,0,1-.541-0.545c0.139-.7.963-5.389,1.19-5.622l6.668-6.9L8.529,4,1.958,10.8,1.447,13.382ZM8.438,2.781l4.854,4.963,2.355-2.385a1.319,1.319,0,0,0,0-1.83L12.583,0.4a1.25,1.25,0,0,0-1.79,0Zm-4.5,8.7a0.651,0.651,0,0,0,.91.93L10.771,6.29l-0.91-.93Z"/>
</svg>
