<svg version="1.2" xmlns="http://www.w3.org/2000/svg" viewBox="0 0 460 460" width="460" height="460">
	<title>pound-svg</title>
	<style>
		.s0 { fill: #ffffff } 
	</style>
	<g id="Layer">
		<path id="Layer" fill-rule="evenodd" class="s0" d="m459.6 230c0 126.6-103 229.6-229.6 229.6-126.6 0-229.6-103-229.6-229.6 0-126.6 103-229.6 229.6-229.6 126.6 0 229.6 103 229.6 229.6zm-39.2 0c0-104.7-85.7-190.4-190.4-190.4-104.7 0-190.4 85.7-190.4 190.4 0 104.7 85.7 190.4 190.4 190.4 104.7 0 190.4-85.7 190.4-190.4z"/>
		<path id="Layer" class="s0" d="m302.8 258c2.8 2.8 4.5 6.7 4.5 10.6-0.6 9.5-2.8 19.1-7.9 26.9-8.9 15.1-24 24.1-40.8 25.8h-3.4c-6.2 0-12.3-1.2-18.5-2.8l-2.8-0.6c-7.3-1.7-14.5-3.4-21.8-4.5-5.6-0.5-11.2-0.5-16.3 0-3.9 0.6-8.4 1.7-12.8 3.4-4 2.2-7.3 2.8-11.2 1.7-3.4-0.6-6.8-2.8-9-6.8-2.2-3.3-2.8-7.8-1.7-11.7 1.1-3.4 3.9-7.3 7.3-9 1.7-0.5 3.4-1.1 4.5-2.2 0.5 0 0.5-0.6 0.5-0.6l0.6-0.5c2.2-1.7 4.5-4 6.7-6.2 1.1-1.1 2.3-1.7 2.8-2.8l0.6-1.1c1.1-1.1 2.2-2.8 2.8-4.5 1.1-2.8 1.7-5.6 2.2-9 0.6-4.4 0.6-9.5 0.6-14.5v-0.6-6.1-2.8h-21.9c-6.1 0-11.2-5.1-11.7-11.8q0-5 3.3-8.4c2.8-2.2 5.6-3.9 9-3.9h17.9c-2.2-7.9-4.5-15.7-3.9-24.1 1.1-15.1 7.8-29.1 17.9-38.6 9.5-9 22.4-14.6 35.9-15.2 14.5-0.5 28.5 5.1 39.2 16.3 9.5 10.1 14.5 23.5 13.4 36.9-0.6 9-6.7 14.6-15.1 15.2-3.4 0-7.9-1.7-10.7-4.5-2.2-2.8-5-7.3-4.4-11.2v-5.1c0-1.6-0.6-3.3-1.2-5-0.5-1.1-1.1-2.8-2.2-3.9-1.1-0.6-1.7-1.7-2.2-2.3l-0.6-0.5c-0.6 0-1.1-0.6-1.7-1.1l-0.5-0.6c-1.2-1.1-2.8-1.7-4-2.2-1.6-0.6-3.9-1.1-5.6-1.7h-6.1c-1.7 0.6-3.9 1.1-6.2 1.7-1.7 1.1-2.8 1.7-4.5 2.8l-1.1 0.5c-0.5 0.6-1.7 1.7-2.2 2.3-0.6 0.5-1.7 1.6-2.3 2.2l-0.5 1.1c-1.1 1.7-2.3 3.4-3.4 5.6-1.1 2.3-1.7 5.1-2.2 7.3v5.6c0.5 3.9 2.2 7.9 3.3 11.8 0.6 2.2 1.2 3.9 1.7 6.1h31.4c6.1 0 11.2 5.1 11.7 11.8q0 5-3.3 8.4c-2.8 2.2-5.6 3.9-9 3.9h-29.1c-0.6 3.4-0.6 6.2-0.6 9.5 0 8.4-0.5 16.8-2.2 25.2-0.6 2.8-1.7 6.2-2.8 9 6.7 0.6 13.4 2.2 21.3 3.9 1.7 0 3.9 0.6 5.6 1.1 3.9 1.2 7.3 2.3 11.2 2.8h5c1.7 0 3.4-0.5 5.1-1.1 1.6-1.1 3.3-1.7 4.4-2.8 1.2-0.5 2.3-1.7 2.8-2.2l1.7-1.7c0.6 0 0.6-0.6 1.1-1.1 0.6-1.7 1.7-2.8 2.3-4.5 0.5-1.7 1.1-3.9 1.7-6.2v-2.2c0.5-8.4 6.7-14.6 15.1-15.1 3.3-0.6 7.3 1.1 12.3 3.9z"/>
		<circle id="Layer" class="s0" cx="92.8" cy="230" r="19.6"/>
		<circle id="Layer" class="s0" cx="367.2" cy="230" r="19.6"/>
	</g>
</svg>