<svg xmlns="http://www.w3.org/2000/svg" width="13" height="18" viewBox="0 0 13 18">
  <defs>
    <style>
      .cls-1 {
        fill: #33414e;
        fill-rule: evenodd;
      }
    </style>
  </defs>
  <path class="cls-1" d="M4.545,14.412l-0.84.831a0.654,0.654,0,0,1-.918,0,0.637,0.637,0,0,1,0-.908l1.3-1.285a0.654,0.654,0,0,1,.918,0l0.84,0.83,0.84-.83a0.654,0.654,0,0,1,.918,0l0.84,0.83,0.84-.83a0.654,0.654,0,0,1,.918,0,0.637,0.637,0,0,1,0,.908L8.9,15.242a0.654,0.654,0,0,1-.918,0l-0.84-.831-0.84.831a0.654,0.654,0,0,1-.918,0Zm5-14.21A0.656,0.656,0,0,0,8.842.062a0.643,0.643,0,0,0-.4.594V3.868a0.646,0.646,0,0,0,.649.642h3.247a0.65,0.65,0,0,0,.6-0.4,0.639,0.639,0,0,0-.141-0.7ZM9.74,3.225h1.03L9.74,2.207V3.225ZM3.247,4.51H5.195a0.642,0.642,0,1,0,0-1.285H3.247A0.642,0.642,0,1,0,3.247,4.51Zm0,3.212H9.739a0.642,0.642,0,1,0,0-1.285H3.246A0.642,0.642,0,1,0,3.246,7.722Zm0,3.212h3.9a0.642,0.642,0,1,0,0-1.285h-3.9A0.642,0.642,0,1,0,3.247,10.934Zm8.441,5.781V16.073a0.649,0.649,0,0,1,1.3,0v1.285a0.646,0.646,0,0,1-.649.642H0.649A0.646,0.646,0,0,1,0,17.358V0.656A0.646,0.646,0,0,1,.649.013H9.09A0.653,0.653,0,0,1,9.549.2L12.8,3.414a0.639,0.639,0,0,1,.19.454V13.5a0.649,0.649,0,0,1-1.3,0V4.134L8.822,1.3H1.3V16.715H11.688Z"/>
</svg>
