<svg xmlns="http://www.w3.org/2000/svg" width="18" height="18" viewBox="0 0 18 18">
  <defs>
    <style>
      .cls-1 {
        fill: #33414e;
        fill-rule: evenodd;
      }
    </style>
  </defs>
  <path class="cls-1" d="M15.5,3.162a0.622,0.622,0,0,0-.652.615L14.785,4.9a6.842,6.842,0,0,0-.8-0.954,7.065,7.065,0,0,0-10.017,0,7.186,7.186,0,0,0,0,10.088,7.013,7.013,0,0,0,5.009,2.077,7.1,7.1,0,0,0,5.009-2.077A7.2,7.2,0,0,0,15.8,10.94a0.633,0.633,0,1,0-1.221-.339A6.075,6.075,0,0,1,13.1,13.144a5.788,5.788,0,0,1-8.228,0,5.913,5.913,0,0,1,0-8.308,5.789,5.789,0,0,1,8.228,0,8.018,8.018,0,0,1,.674.805H13.018a0.636,0.636,0,0,0,0,1.272l2.946,0.021L16.111,3.84a0.655,0.655,0,0,0-.61-0.678h0Z"/>
</svg>
