<svg xmlns="http://www.w3.org/2000/svg" width="17" height="17" viewBox="0 0 17 17">
  <defs>
    <style>
      .cls-1 {
        fill: #33414e;
        fill-rule: evenodd;
      }
    </style>
  </defs>
  <path class="cls-1" d="M4.037,15.04V9.173a0.519,0.519,0,0,1,.525-0.51h7.875a0.557,0.557,0,0,1,.525.51V15.04H14.38a0.739,0.739,0,0,0,.682-0.765V5.837L11.44,1.96H11.073V5.225a0.557,0.557,0,0,1-.525.51H4.615a0.568,0.568,0,0,1-.577-0.51V1.96H2.62a0.739,0.739,0,0,0-.683.765v11.55a0.739,0.739,0,0,0,.683.765H4.037Zm7.875,0V9.684H5.087V15.04h6.825ZM2.62,0.94h9.03a0.482,0.482,0,0,1,.42.2l3.885,4.132a0.544,0.544,0,0,1,.158.357v8.642A1.776,1.776,0,0,1,14.38,16.06H2.62A1.776,1.776,0,0,1,.887,14.275V2.725A1.776,1.776,0,0,1,2.62.94h0Zm7.4,1.02H5.088V4.715h4.935V1.96ZM5,11h7v1H5V11ZM4,13h7v1H4V13Z"/>
</svg>
