<svg xmlns="http://www.w3.org/2000/svg" width="23" height="24" viewBox="0 0 23 24">
  <defs>
    <style>
      .cls-1 {
        fill: #33414e;
        fill-rule: evenodd;
      }
    </style>
  </defs>
  <path class="cls-1" d="M6.274,6.75a0.72,0.72,0,0,0-.645.721V8.792a0.72,0.72,0,0,0-.72-0.6H1.549a0.7,0.7,0,0,0-.075,0,0.722,0.722,0,0,0,.075,1.441h3.36a0.721,0.721,0,0,0,.72-0.586v2.147a0.72,0.72,0,0,0-.72-0.6H2.029a0.67,0.67,0,0,0-.075,0,0.722,0.722,0,0,0,.075,1.441h2.88a0.72,0.72,0,0,0,.72-0.586V13.6a0.72,0.72,0,0,0-.72-0.6h-2.4a0.722,0.722,0,1,0,0,1.441h2.4a0.721,0.721,0,0,0,.72-0.586V17.56a0.72,0.72,0,0,0,.72.721h15.36a0.72,0.72,0,0,0,.72-0.721V7.471a0.72,0.72,0,0,0-.72-0.721H6.349a0.7,0.7,0,0,0-.075,0h0Zm2,1.441h11.52l-5.76,5.044Zm-1.2.863,3.945,3.461L7.069,15.969V9.055Zm13.92,0v6.914l-3.945-3.453Zm-8.88,4.414,1.448,1.269a0.72,0.72,0,0,0,.945,0l1.448-1.269,3.847,3.37H8.261Z"/>
</svg>
