<svg xmlns="http://www.w3.org/2000/svg" width="18" height="18" viewBox="0 0 18 18">
  <defs>
    <style>
      .cls-1 {
        fill: #33414e;
        fill-rule: evenodd;
      }
    </style>
  </defs>
  <path class="cls-1" d="M0.538,1a0.6,0.6,0,0,0-.384.2A0.624,0.624,0,0,0,0,1.617V16.38a0.623,0.623,0,0,0,.176.435,0.592,0.592,0,0,0,.424.18H11.8a0.592,0.592,0,0,0,.424-0.18A0.623,0.623,0,0,0,12.4,16.38v-1.64h0.8v1.64a0.623,0.623,0,0,0,.179.44,0.589,0.589,0,0,0,.858-0.018l3.6-3.9a0.627,0.627,0,0,0,0-.846l-3.6-3.9a0.59,0.59,0,0,0-.88.005,0.625,0.625,0,0,0-.158.418v1.64H12.4V5.16a0.623,0.623,0,0,0-.181-0.442L8.687,1.174A0.593,0.593,0,0,0,8.268,1H0.6A0.571,0.571,0,0,0,.538,1h0ZM1.2,2.232H7.6V5.307a0.623,0.623,0,0,0,.176.435,0.592,0.592,0,0,0,.424.18h3v4.306h-3a0.592,0.592,0,0,0-.424.18,0.623,0.623,0,0,0-.176.435v3.281a0.623,0.623,0,0,0,.176.435,0.592,0.592,0,0,0,.424.18h3v1.025H1.2V2.232ZM8.8,3.007l1.681,1.685H8.8V3.007Zm5.6,7.125,2.169,2.352L14.4,14.836V14.124a0.623,0.623,0,0,0-.176-0.435,0.592,0.592,0,0,0-.424-0.18h-5v-2.05h5a0.592,0.592,0,0,0,.424-0.18,0.622,0.622,0,0,0,.176-0.435V10.132Z"/>
  <path class="cls-1" d="M2.674,4.374H5.9a0.6,0.6,0,0,1,.6.61V5.17a0.6,0.6,0,0,1-.6.61H2.674a0.6,0.6,0,0,1-.6-0.61V4.983A0.6,0.6,0,0,1,2.674,4.374Zm0,2.768H5.9a0.6,0.6,0,0,1,.6.61V7.938a0.6,0.6,0,0,1-.6.61H2.674a0.6,0.6,0,0,1-.6-0.61V7.751A0.6,0.6,0,0,1,2.674,7.142Zm0,2.776H5.9a0.6,0.6,0,0,1,.6.61v0.187a0.6,0.6,0,0,1-.6.61H2.674a0.6,0.6,0,0,1-.6-0.61V10.528A0.6,0.6,0,0,1,2.674,9.918Zm0,2.768H5.9a0.6,0.6,0,0,1,.6.61v0.187a0.6,0.6,0,0,1-.6.609H2.674a0.6,0.6,0,0,1-.6-0.609V13.3A0.6,0.6,0,0,1,2.674,12.686Z"/>
</svg>
