<svg id="cart" xmlns="http://www.w3.org/2000/svg" width="20" height="18" viewBox="0 0 20 18">
  <defs>
    <style>
      .cls-1 {
        fill: #33414e;
        fill-rule: evenodd;
      }
    </style>
  </defs>
  <path class="cls-1" d="M19.548,3.485a2.038,2.038,0,0,0-1.584-.776H5.1L4.774,1.531A2.028,2.028,0,0,0,2.809,0H0.655A0.656,0.656,0,0,0,0,.65a0.656,0.656,0,0,0,.655.65H2.809a0.7,0.7,0,0,1,.676.524l2.5,9.818a2.028,2.028,0,0,0,1.964,1.531h8.428a2.01,2.01,0,0,0,1.964-1.531l1.584-6.459a1.912,1.912,0,0,0-.38-1.7h0ZM18.639,4.89l-1.584,6.459a0.7,0.7,0,0,1-.676.524H7.951a0.7,0.7,0,0,1-.676-0.524L5.437,4.03H17.963a0.7,0.7,0,0,1,.549.273,0.654,0.654,0,0,1,.127.587h0ZM8.395,13.638a2.181,2.181,0,1,0,2.2,2.181,2.2,2.2,0,0,0-2.2-2.181h0Zm0,3.041a0.86,0.86,0,1,1,.866-0.86A0.881,0.881,0,0,1,8.395,16.679Zm7.266-3.041a2.181,2.181,0,1,0,2.2,2.181,2.2,2.2,0,0,0-2.2-2.181h0Zm0,3.041a0.86,0.86,0,1,1,.866-0.86A0.881,0.881,0,0,1,15.661,16.679Z"/>
  <path class="cls-1" d="M16.038,8.015l-3.46-3.038v1.8H8.453V9.2h4.111V11.04Z"/>
</svg>
