<svg xmlns="http://www.w3.org/2000/svg" width="15.31" height="15.062" viewBox="0 0 15.31 15.062">
  <defs>
    <style>
      .cls-1 {
        fill: #33414e;
        fill-rule: evenodd;
      }
    </style>
  </defs>
  <path class="cls-1" d="M1715.82,457.7l4.03-4.027,1.76,1.76-4.03,4.026Zm4.36-4.355,1.09-1.094,1.76,1.76-1.09,1.094Zm-4.83,4.825-0.48,2.239,2.24-.48,0.14-.141-1.76-1.76Zm-3.14,1.159h-1.97a2.364,2.364,0,0,1-2.52-2.163v-9.655a2.364,2.364,0,0,1,2.52-2.163h8.7a2.364,2.364,0,0,1,2.52,2.163v2.26a0.732,0.732,0,0,1-.37.637,0.722,0.722,0,0,1-.73,0,0.732,0.732,0,0,1-.37-0.637v-2.26a0.947,0.947,0,0,0-1.05-.692h-8.7a0.947,0.947,0,0,0-1.05.692v9.655a0.947,0.947,0,0,0,1.05.692h1.97a0.721,0.721,0,0,1,.62.371,0.73,0.73,0,0,1,0,.729,0.721,0.721,0,0,1-.62.371h0Zm-1.2-8.463,0.04-1.471,6.44,0.184-0.04,1.471Zm0.02,2.392h4.6v1.472h-4.6v-1.472Z" transform="translate(-1707.72 -445.344)"/>
</svg>
