<svg xmlns="http://www.w3.org/2000/svg" width="22" height="22" viewBox="0 0 22 22">
  <defs>
    <style>
      .cls-1 {
        fill: #33414e;
        fill-rule: evenodd;
      }
    </style>
  </defs>
  <path class="cls-1" d="M7,11a4,4,0,1,1,4,4A4,4,0,0,1,7,11Zm4,2.5a2.5,2.5,0,1,0,0-5H10.91A1.244,1.244,0,0,1,11,9a2,2,0,0,1-2,2,1.247,1.247,0,0,1-.5-0.091v0.063A2.506,2.506,0,0,0,11,13.5h0ZM4.978,6.519A8.8,8.8,0,0,1,11,4a8.808,8.808,0,0,1,6.023,2.519,12.106,12.106,0,0,1,2.905,4.1,0.993,0.993,0,0,1,0,.769,12.669,12.669,0,0,1-2.905,4.1A8.8,8.8,0,0,1,11,18a8.8,8.8,0,0,1-6.022-2.519,12.718,12.718,0,0,1-2.907-4.1,1,1,0,0,1,0-.769,12.151,12.151,0,0,1,2.907-4.1h0ZM11,5.5A7.322,7.322,0,0,0,6,7.616,10.785,10.785,0,0,0,3.54,11,11.11,11.11,0,0,0,6,14.384,7.322,7.322,0,0,0,11,16.5a7.322,7.322,0,0,0,5-2.116A11.631,11.631,0,0,0,18.461,11,11.274,11.274,0,0,0,16,7.616,7.322,7.322,0,0,0,11,5.5h0Z"/>
</svg>
