<svg xmlns="http://www.w3.org/2000/svg" width="15.299" height="18" viewBox="0 0 15.299 18">
  <g id="acq-icon-quote-summary" transform="translate(-916.001 -174)">
    <path id="Subtraction_2" data-name="Subtraction 2" d="M-108.356,20h-13.988a.63.63,0,0,1-.655-.6V2.6a.621.621,0,0,1,.587-.6h10.122a.685.685,0,0,1,.464.176l3.934,3.6a.571.571,0,0,1,.192.425V19.4A.63.63,0,0,1-108.356,20ZM-121,17v1h4V17Zm0-2v1h9V15h-9Zm0-2v1h8V13Zm0-2v1h10V11Zm0-2v1h7V9Zm8.2-5.989h0l-.414,4.182,4.432-.58-4.018-3.6Z" transform="translate(1039 172)" fill="gray"/>
  </g>
</svg>
