<svg xmlns="http://www.w3.org/2000/svg" width="23.999" height="17.496" viewBox="0 0 23.999 17.496">
  <path id="acq-icon-vehicle-selection" d="M3.837,6.177c.487-1.065.943-2.16,1.552-3.377.335-.578.7-1.1,1.369-1.156H17.012c.669.061,1.035.578,1.369,1.156.609,1.217,1.065,2.312,1.552,3.377Zm4.808,4.382h6.451a.715.715,0,0,1,0,1.43H8.644a.715.715,0,0,1,0-1.43ZM6.758,0C5.662,0,4.993.4,4.08,1.674L2.559,5.112H.246c-.365,0-1.035,1.886,1.4,1.947L.825,9.037c.03,2.525.03,5.021.03,7.516A.948.948,0,0,0,1.8,17.5H4.963a.922.922,0,0,0,.913-.943V14.483H17.864v2.069a.948.948,0,0,0,.943.943h3.164a.922.922,0,0,0,.913-.943c0-2.5.03-4.99.03-7.516l-.822-1.978c2.465-.061,1.765-1.947,1.43-1.947H21.211L19.689,1.674C18.777.4,18.107,0,17.012,0ZM19.476,9.219a1.526,1.526,0,0,0-1.521,1.521,1.546,1.546,0,0,0,1.521,1.521A1.526,1.526,0,0,0,21,10.741,1.507,1.507,0,0,0,19.476,9.219Zm-15.183,0a1.526,1.526,0,0,1,1.521,1.521,1.546,1.546,0,0,1-1.521,1.521,1.526,1.526,0,0,1-1.521-1.521A1.507,1.507,0,0,1,4.293,9.219Z" transform="translate(0.122)" fill="gray" fill-rule="evenodd"/>
</svg>
