<svg id="acq-icon-option-acc" xmlns="http://www.w3.org/2000/svg" width="18" height="18" viewBox="0 0 18 18">
  <g id="Group_613" data-name="Group 613">
    <path id="Path_805" data-name="Path 805" d="M361.086,435h.026l3.5,2.464-.079.079A6.811,6.811,0,0,1,360,439.53l.45-4.239A3.537,3.537,0,0,0,361.086,435Z" transform="translate(-350.8 -423.967)" fill="gray"/>
    <path id="Path_806" data-name="Path 806" d="M441.02,366.841l-2.994-3.073-.026-.027a1.531,1.531,0,0,0,.132-.371l4.318-.371A6.823,6.823,0,0,1,441.02,366.841Z" transform="translate(-426.888 -353.706)" fill="gray"/>
    <path id="Path_807" data-name="Path 807" d="M178.391,438l-.027.026L175,440.676a6.753,6.753,0,0,0,4.239,1.775l-.371-4.239A2.6,2.6,0,0,1,178.391,438Z" transform="translate(-170.524 -426.888)" fill="gray"/>
    <path id="Path_808" data-name="Path 808" d="M93.7,367.133,96.53,363.9h0a3.157,3.157,0,0,1-.212-.53L92,363A6.746,6.746,0,0,0,93.7,367.133Z" transform="translate(-89.563 -353.712)" fill="gray"/>
    <path id="Path_809" data-name="Path 809" d="M96.557,178.47,93.775,175A6.822,6.822,0,0,0,92,179.318l4.4-.45A2.486,2.486,0,0,1,96.557,178.47Z" transform="translate(-89.563 -170.525)" fill="gray"/>
    <path id="Path_810" data-name="Path 810" d="M177,93.722l3.391,2.888h.026c.106-.053.238-.106.371-.159l.4-4.451A6.829,6.829,0,0,0,177,93.722Z" transform="translate(-172.472 -89.563)" fill="gray"/>
    <path id="Path_811" data-name="Path 811" d="M360.9,96.636V96.61l3.417-2.835A6.822,6.822,0,0,0,360,92l.45,4.451A3.232,3.232,0,0,1,360.9,96.636Z" transform="translate(-350.794 -89.563)" fill="gray"/>
    <path id="Path_812" data-name="Path 812" d="M436.835,177,434,180.417a2.674,2.674,0,0,1,.185.4l4.371.45A6.773,6.773,0,0,0,436.835,177Z" transform="translate(-422.994 -172.473)" fill="gray"/>
    <path id="Path_813" data-name="Path 813" d="M9,0A8.981,8.981,0,1,1,2.63,2.63,9.007,9.007,0,0,1,9,0Zm4.951,4.049A7.035,7.035,0,1,0,15.989,9,6.976,6.976,0,0,0,13.951,4.049Z" fill="gray"/>
  </g>
</svg>
