<svg xmlns="http://www.w3.org/2000/svg" width="16.988" height="17.878" viewBox="0 0 16.988 17.878">
  <g id="acq-icon-otr-cal" transform="translate(-622.399 161)">
    <path id="Subtraction_4" data-name="Subtraction 4" d="M-64.772-315.122H-79.424c-.439,0-1.176-.236-1.176-1.814v-14.887A1.164,1.164,0,0,1-79.424-333h14.635a1.164,1.164,0,0,1,1.176,1.176V-316.3a1.124,1.124,0,0,1-.323.823A1.173,1.173,0,0,1-64.772-315.122Zm-4.585-6a2.046,2.046,0,0,0-1.545.613,2.439,2.439,0,0,0-.586,1.785,3.022,3.022,0,0,0,.159,1.012,2.48,2.48,0,0,0,.453.772,1.791,1.791,0,0,0,.693.48,2.364,2.364,0,0,0,.879.16,1.977,1.977,0,0,0,1.544-.64,2.488,2.488,0,0,0,.587-1.785,2.846,2.846,0,0,0-.64-1.785A2.023,2.023,0,0,0-69.357-321.126Zm-1.253-4.1-4.9,8.711h1.6l4.9-8.711Zm-4.528-.186a2.048,2.048,0,0,0-1.545.613,2.439,2.439,0,0,0-.586,1.785,2.959,2.959,0,0,0,.16,1.013,2.46,2.46,0,0,0,.453.772,1.793,1.793,0,0,0,.692.48,2.365,2.365,0,0,0,.879.159,1.945,1.945,0,0,0,1.492-.639,2.494,2.494,0,0,0,.586-1.785,2.565,2.565,0,0,0-.586-1.785A2.024,2.024,0,0,0-75.137-325.415Zm-2.777-4.667h0v2.884H-66.3v-2.884Zm8.558,12.578a.675.675,0,0,1-.587-.293,1.737,1.737,0,0,1-.212-.932,1.737,1.737,0,0,1,.212-.932.709.709,0,0,1,.587-.292.673.673,0,0,1,.586.293,1.506,1.506,0,0,1,.213.932,1.784,1.784,0,0,1-.213.932A.709.709,0,0,1-69.357-317.5Zm-5.781-4.262a.672.672,0,0,1-.586-.293,1.731,1.731,0,0,1-.213-.932,1.43,1.43,0,0,1,.213-.932.708.708,0,0,1,.586-.292.674.674,0,0,1,.586.292,1.5,1.5,0,0,1,.213.932,1.731,1.731,0,0,1-.213.932A.707.707,0,0,1-75.137-321.765Z" transform="translate(703 172)" fill="gray"/>
  </g>
</svg>
