<svg xmlns="http://www.w3.org/2000/svg" width="17.999" height="17.625" viewBox="0 0 17.999 17.625">
  <g id="acq-icon-customer-quote" transform="translate(-814.001 170)">
    <path id="Path_819" data-name="Path 819" d="M29.962,4.875H22.29V6.062h7.671Zm0,2.922H28.683V8.984h1.279Zm0,2.922H28.683v1.187h1.279Zm-1.279,4.109h1.279V13.642H28.683Zm-.913-1.187H23.64l.131.055c.22.091.445.178.662.262a7.379,7.379,0,0,1,1.787.87h1.55Zm0-4.658V7.8H23.359a2.7,2.7,0,0,1,.517,1.187Zm4.749-7.945H19.733a.916.916,0,0,0-.913.913v5.1a3.553,3.553,0,0,1,1.37-.508V2.683H32.062V17.021H27.108c.024.415.029.934,0,1.586l0,.057h5.41a.916.916,0,0,0,.913-.913V1.952A.915.915,0,0,0,32.519,1.039ZM23.994,11.907H27.77V10.719H24.14a2.79,2.79,0,0,1,.022.554A1.778,1.778,0,0,1,23.994,11.907Z" transform="translate(798.568 -171.039)" fill="gray"/>
    <path id="Path_820" data-name="Path 820" d="M10.48,45.42c-.321-.5-1.4-.813-2.467-1.255a12.967,12.967,0,0,1-1.318-.6l-.01-1.025a1.924,1.924,0,0,0,.524-1.272c.25.073.513-.374.525-.609s-.033-.85-.338-.786a6.488,6.488,0,0,0,.086-1.123,2.045,2.045,0,0,0-2.134-1.69,2.046,2.046,0,0,0-2.135,1.69A6.552,6.552,0,0,0,3.3,39.875c-.3-.064-.353.56-.338.786s.274.682.525.609a1.921,1.921,0,0,0,.524,1.272L4,43.566a13.051,13.051,0,0,1-1.318.6c-1.069.442-2.146.753-2.467,1.255a8.861,8.861,0,0,0-.2,2.6H10.682a8.857,8.857,0,0,0-.2-2.6" transform="translate(814 -200.578)" fill="gray"/>
  </g>
</svg>
