<svg xmlns="http://www.w3.org/2000/svg" width="24.045" height="14.806" viewBox="0 0 24.045 14.806">
  <g id="acq-icon-acquisition" transform="translate(-17552 -953)">
    <path id="Path_763" data-name="Path 763" d="M9.858,35a1.693,1.693,0,0,1,0,.943h1.01A3.737,3.737,0,0,1,10.991,35H9.86Z" transform="translate(17542.545 926.015)" fill="gray"/>
    <path id="Path_764" data-name="Path 764" d="M24.141,33.047A2.824,2.824,0,0,0,23,31.808v.84a3.786,3.786,0,0,1,1.324.908A2.735,2.735,0,0,0,24.141,33.047Z" transform="translate(17535.602 927.702)" fill="gray"/>
    <path id="Path_765" data-name="Path 765" d="M20.2,40A1.2,1.2,0,0,0,19,41.2a1.183,1.183,0,0,0,.094.462,1.117,1.117,0,0,0,.251.373,1.257,1.257,0,0,0,.4.276A1.2,1.2,0,1,0,20.2,40Z" transform="translate(17536.713 923.361)" fill="gray"/>
    <path id="Path_766" data-name="Path 766" d="M14.209,33.53a.462.462,0,0,1,.164-.144,3.772,3.772,0,0,1,1.152-.738v-.84a2.864,2.864,0,0,0-.586.447,2.808,2.808,0,0,0-.73,1.273Z" transform="translate(17540.248 927.702)" fill="gray"/>
    <path id="Path_767" data-name="Path 767" d="M19.825,38.379l.78-.39a3.275,3.275,0,0,0-.389-1.253l-.067.2a.552.552,0,1,1-1.046-.349l.281-.842a3.3,3.3,0,0,0-1.136-.594l.084.169a.551.551,0,1,1-.985.492l-.389-.777a3.288,3.288,0,0,0-1.206.374l.153.051a.552.552,0,1,1-.349,1.046l-.8-.268a3.3,3.3,0,0,0-.6,1.119l.16-.08a.551.551,0,0,1,.492.986l-.78.39a3.274,3.274,0,0,0,.372,1.221l.055-.17a.552.552,0,1,1,1.046.349l-.275.826a3.293,3.293,0,0,0,1.126.6l-.08-.16a.551.551,0,1,1,.986-.492l.39.78a3.281,3.281,0,0,0,1.221-.372l-.169-.055a.552.552,0,0,1,.349-1.047l.826.275a3.3,3.3,0,0,0,.6-1.126l-.16.08a.551.551,0,1,1-.492-.986Zm-2.508,1.595a1.666,1.666,0,0,1-.33-.034H16.98a1.615,1.615,0,0,1-.582-.246,1.66,1.66,0,0,1-.414-.406,1.62,1.62,0,0,1-.319-.967,1.652,1.652,0,1,1,1.652,1.652Z" transform="translate(17539.615 926.195)" fill="gray"/>
    <path id="Path_768" data-name="Path 768" d="M9.943,31.583,9.652,31H9v.943h.943Z" transform="translate(17543 928.129)" fill="gray"/>
    <path id="Path_769" data-name="Path 769" d="M27.494,18H22.633a.948.948,0,0,0-.667.276l-2.552,2.552h8.08Z" transform="translate(17537.498 935)" fill="gray"/>
    <path id="Path_771" data-name="Path 771" d="M19,31.975a3.894,3.894,0,0,1,.409-.029h.044l.019,0a3.794,3.794,0,0,1,.471.033v-.933c-.058-.009-.116-.02-.173-.025A2.5,2.5,0,0,0,19.481,31H19.46a2.222,2.222,0,0,0-.268.017c-.07.007-.132.015-.191.024Z" transform="translate(17537.711 928.129)" fill="gray"/>
    <path id="Path_772" data-name="Path 772" d="M13.058,27.589h0c.017,0,.032-.013.047-.017l.042-.01c.09-.027.18-.05.27-.069a2.734,2.734,0,0,1,.291-.042V26H10.138L9,27.138v1.48l1.036.682h.9a6.847,6.847,0,0,1,.583-.781,3.751,3.751,0,0,1,1.539-.93Z" transform="translate(17543 930.772)" fill="gray"/>
    <path id="Path_773" data-name="Path 773" d="M50.24,33.466c.029.029.056.06.084.09a2.734,2.734,0,0,0-.183-.509A2.824,2.824,0,0,0,49,31.808v.84a3.777,3.777,0,0,1,1.221.8Z" transform="translate(17521.857 927.702)" fill="gray"/>
    <path id="Path_774" data-name="Path 774" d="M53.862,35.943h1.356l1.472-.368V35H53.738A3.734,3.734,0,0,1,53.862,35.943Z" transform="translate(17519.354 926.015)" fill="gray"/>
    <path id="Path_775" data-name="Path 775" d="M45.446,31.941h.025a3.794,3.794,0,0,1,.471.033V31.04c-.058-.009-.116-.02-.173-.025a2.221,2.221,0,0,0-.578,0c-.07.007-.132.015-.191.024v.936a3.725,3.725,0,0,1,.438-.034Z" transform="translate(17523.973 928.131)" fill="gray"/>
    <path id="Path_776" data-name="Path 776" d="M44.893,27.625l-.471-.943a.471.471,0,0,1-.049-.211V26H34.943v1.886a.471.471,0,0,1-.094.283L34,29.3h2.408a3.661,3.661,0,0,1,.583-.781,3.751,3.751,0,0,1,1.539-.93h0c.016,0,.032-.013.047-.017l.042-.01c.09-.027.18-.05.27-.069a2.97,2.97,0,0,1,.382-.056,3.193,3.193,0,0,1,.779,0,2.861,2.861,0,0,1,.366.054c.089.019.18.042.271.07l.041.01A3.766,3.766,0,0,1,42.918,29.3h3.34V27.886h-.943a.471.471,0,0,1-.422-.261Z" transform="translate(17529.787 930.772)" fill="gray"/>
    <path id="Path_777" data-name="Path 777" d="M45.8,38.362l.776-.388a3.26,3.26,0,0,0-.371-1.216l-.055.169a.549.549,0,0,1-1.042-.347l.274-.823a3.278,3.278,0,0,0-1.121-.6l.08.16a.549.549,0,0,1-.982.49l-.386-.775a3.267,3.267,0,0,0-1.215.37l.168.055a.549.549,0,1,1-.347,1.042l-.823-.274a3.286,3.286,0,0,0-.6,1.121l.16-.08a.549.549,0,0,1,.49.982l-.776.388A3.26,3.26,0,0,0,40.4,39.85l.055-.169a.549.549,0,0,1,1.042.347l-.274.823a3.278,3.278,0,0,0,1.121.6l-.08-.16a.549.549,0,0,1,.982-.49l.388.776a3.267,3.267,0,0,0,1.215-.37l-.168-.055a.549.549,0,1,1,.347-1.042l.823.274a3.286,3.286,0,0,0,.6-1.121l-.16.08a.549.549,0,1,1-.49-.982Zm-2.5,1.587a1.659,1.659,0,0,1-.329-.033h-.007a1.608,1.608,0,0,1-.579-.245,1.653,1.653,0,0,1-.412-.4,1.613,1.613,0,0,1-.317-.962,1.645,1.645,0,1,1,1.645,1.645Z" transform="translate(17526.029 926.227)" fill="gray"/>
    <path id="Path_778" data-name="Path 778" d="M57.044,26l.177,1.343.291.583h1.624V26Z" transform="translate(17516.908 930.772)" fill="gray"/>
    <path id="Path_779" data-name="Path 779" d="M40.256,33.486a3.775,3.775,0,0,1,1.261-.839v-.84a2.864,2.864,0,0,0-.586.447,2.829,2.829,0,0,0-.737,1.3c.015-.016.028-.032.043-.047Z" transform="translate(17526.514 927.702)" fill="gray"/>
    <path id="Path_780" data-name="Path 780" d="M27.862,35.943h4.715A3.737,3.737,0,0,1,32.7,35H27.738A3.734,3.734,0,0,1,27.862,35.943Z" transform="translate(17533.096 926.015)" fill="gray"/>
    <path id="Path_781" data-name="Path 781" d="M28.332,27.729V26H21v1.445a2.894,2.894,0,0,1,.294.047c.089.019.18.042.271.07l.041.01A3.766,3.766,0,0,1,23.789,29.3h3.364Z" transform="translate(17536.658 930.772)" fill="gray"/>
    <path id="Path_782" data-name="Path 782" d="M46.2,40A1.2,1.2,0,0,0,45,41.2a1.183,1.183,0,0,0,.094.462,1.117,1.117,0,0,0,.251.373,1.257,1.257,0,0,0,.4.276A1.2,1.2,0,1,0,46.2,40Z" transform="translate(17523.129 923.361)" fill="gray"/>
    <path id="Path_784" data-name="Path 784" d="M41.068,20.829h1.2L40.62,18.66a.471.471,0,0,0-.377-.189H37.886A.471.471,0,0,0,37.414,18H36v2.829Z" transform="translate(17528.729 935)" fill="gray"/>
  </g>
</svg>
