<svg xmlns="http://www.w3.org/2000/svg" width="18" height="18" viewBox="0 0 18 18">
  <g id="acq-icon-holding-cost" transform="translate(-2.171 -2.171)">
    <path id="Path_393" data-name="Path 393" d="M18,9a9,9,0,1,0,9,9A9.012,9.012,0,0,0,18,9Zm2.963,14.751a3.176,3.176,0,0,1-.768.088,3.35,3.35,0,0,1-.659-.066,8.265,8.265,0,0,1-1.01-.285A7.248,7.248,0,0,0,17.5,23.2a4.042,4.042,0,0,0-.724-.066,3.94,3.94,0,0,0-1.185.2,4.54,4.54,0,0,0-1.141.527l-.527-1.339a3.508,3.508,0,0,0,1.251-1.163,3.338,3.338,0,0,0,.527-1.866,3.782,3.782,0,0,0-.132-.966H14.049V17.385h1.185a10.943,10.943,0,0,1-.329-1.251,4.739,4.739,0,0,1-.066-.768,2.946,2.946,0,0,1,1.185-2.5,3.7,3.7,0,0,1,2.3-.724,3.518,3.518,0,0,1,2.3.768,3.365,3.365,0,0,1,1.12,2.151l-1.383.2a2.369,2.369,0,0,0-.68-1.449,2.1,2.1,0,0,0-2.81.022,1.826,1.826,0,0,0-.571,1.339,8.068,8.068,0,0,0,.439,2.239h2.437v1.141h-2.2a1.909,1.909,0,0,1,.154.68,3.616,3.616,0,0,1-.329,1.427,5.662,5.662,0,0,1-1.054,1.537,4.364,4.364,0,0,1,1.12-.176,6.308,6.308,0,0,1,1.449.2,8.7,8.7,0,0,0,1.8.307,3.876,3.876,0,0,0,1.493-.439l.439,1.273A7.793,7.793,0,0,1,20.963,23.751Z" transform="translate(-6.829 -6.829)" fill="gray"/>
  </g>
</svg>
