<svg id="Capa_1" data-name="Capa 1" xmlns="http://www.w3.org/2000/svg" viewBox="0 0 400 480"><defs><style>.cls-1{fill:#f8f9fa;}.cls-2{fill:#e9686a;}.cls-3{fill:#d3d3d3;}.cls-4{fill:#ba0c2f;}</style></defs><path class="cls-1" d="M384,472H48V40H272L384,152Z" transform="translate(-40)"/><path class="cls-1" d="M432,424H96V8H320L432,120Z" transform="translate(-40)"/><path class="cls-1" d="M320,120H432L320,8Z" transform="translate(-40)"/><path class="cls-2" d="M160,360H144a8,8,0,0,1,0-16h16a8,8,0,0,1,0,16Z" transform="translate(-40)"/><path class="cls-2" d="M384,360H192a8,8,0,0,1,0-16H384a8,8,0,0,1,0,16Z" transform="translate(-40)"/><path class="cls-2" d="M160,312H144a8,8,0,0,1,0-16h16a8,8,0,0,1,0,16Z" transform="translate(-40)"/><path class="cls-2" d="M384,312H192a8,8,0,0,1,0-16H384a8,8,0,0,1,0,16Z" transform="translate(-40)"/><path class="cls-2" d="M160,264H144a8,8,0,0,1,0-16h16a8,8,0,0,1,0,16Z" transform="translate(-40)"/><path class="cls-2" d="M384,264H192a8,8,0,0,1,0-16H384a8,8,0,0,1,0,16Z" transform="translate(-40)"/><path class="cls-2" d="M160,216H144a8,8,0,0,1,0-16h16a8,8,0,0,1,0,16Z" transform="translate(-40)"/><path class="cls-2" d="M384,216H192a8,8,0,0,1,0-16H384a8,8,0,0,1,0,16Z" transform="translate(-40)"/><path class="cls-2" d="M160,168H144a8,8,0,0,1,0-16h16a8,8,0,0,1,0,16Z" transform="translate(-40)"/><path class="cls-2" d="M384,168H192a8,8,0,0,1,0-16H384a8,8,0,0,1,0,16Z" transform="translate(-40)"/><path class="cls-3" d="M144,80h48v48H144Z" transform="translate(-40)"/><path d="M144,360h16a8,8,0,0,0,0-16H144a8,8,0,0,0,0,16Z" transform="translate(-40)"/><path d="M384,344H192a8,8,0,0,0,0,16H384a8,8,0,0,0,0-16Z" transform="translate(-40)"/><path d="M144,312h16a8,8,0,0,0,0-16H144a8,8,0,0,0,0,16Z" transform="translate(-40)"/><path d="M384,296H192a8,8,0,0,0,0,16H384a8,8,0,0,0,0-16Z" transform="translate(-40)"/><path d="M144,264h16a8,8,0,0,0,0-16H144a8,8,0,0,0,0,16Z" transform="translate(-40)"/><path d="M384,248H192a8,8,0,0,0,0,16H384a8,8,0,0,0,0-16Z" transform="translate(-40)"/><path d="M144,216h16a8,8,0,0,0,0-16H144a8,8,0,0,0,0,16Z" transform="translate(-40)"/><path d="M384,200H192a8,8,0,0,0,0,16H384a8,8,0,0,0,0-16Z" transform="translate(-40)"/><path d="M144,168h16a8,8,0,0,0,0-16H144a8,8,0,0,0,0,16Z" transform="translate(-40)"/><path d="M184,160a8,8,0,0,0,8,8H384a8,8,0,0,0,0-16H192A8,8,0,0,0,184,160Z" transform="translate(-40)"/><path class="cls-4" d="M48,480H384a8,8,0,0,0,8-8V432h40a8,8,0,0,0,8-8V120c0-.18-.09-.33-.1-.5a7.61,7.61,0,0,0-.41-2.06,6.71,6.71,0,0,0-.27-.75,8,8,0,0,0-1.6-2.35l-112-112a8.18,8.18,0,0,0-2.34-1.6c-.25-.11-.5-.17-.74-.26a8.18,8.18,0,0,0-2.08-.42c-.13,0-.28-.06-.46-.06H96a8,8,0,0,0-8,8V32H48a8,8,0,0,0-8,8V472a8,8,0,0,0,8,8ZM412.69,112H328V27.31ZM104,16H312V120a8,8,0,0,0,8,8H424V416H104ZM56,48H88V424a8,8,0,0,0,8,8H376v32H56Z" transform="translate(-40)"/><path d="M144,136h48a8,8,0,0,0,8-8V80a8,8,0,0,0-8-8H144a8,8,0,0,0-8,8v48A8,8,0,0,0,144,136Zm8-48h32v32H152Z" transform="translate(-40)"/></svg>