<svg id="Capa_1" data-name="Capa 1" xmlns="http://www.w3.org/2000/svg" viewBox="0 0 400 480"><defs><style>.cls-1{fill:#f8f9fa;}.cls-2{fill:#ba0c2f;}</style></defs><path class="cls-1" d="M384,472H48V40H272L384,152Z" transform="translate(-40)"/><path class="cls-1" d="M432,424H96V8H320L432,120Z" transform="translate(-40)"/><path class="cls-1" d="M320,120H432L320,8Z" transform="translate(-40)"/><path class="cls-2" d="M48,480H384a8,8,0,0,0,8-8V432h40a8,8,0,0,0,8-8V120c0-.18-.09-.33-.1-.5a7.61,7.61,0,0,0-.41-2.06,6.71,6.71,0,0,0-.27-.75,8,8,0,0,0-1.6-2.35l-112-112a8.18,8.18,0,0,0-2.34-1.6c-.25-.11-.5-.17-.74-.26a8.18,8.18,0,0,0-2.08-.42c-.13,0-.28-.06-.46-.06H96a8,8,0,0,0-8,8V32H48a8,8,0,0,0-8,8V472a8,8,0,0,0,8,8ZM412.69,112H328V27.31ZM104,16H312V120a8,8,0,0,0,8,8H424V416H104ZM56,48H88V424a8,8,0,0,0,8,8H376v32H56Z" transform="translate(-40)"/></svg>